<?xml version="1.0" standalone="no"?>
<!DOCTYPE svg PUBLIC "-//W3C//DTD SVG 20010904//EN"
 "http://www.w3.org/TR/2001/REC-SVG-20010904/DTD/svg10.dtd">
<svg version="1.0" xmlns="http://www.w3.org/2000/svg"
 width="400.000000pt" height="588.000000pt" viewBox="0 0 400.000000 588.000000"
 preserveAspectRatio="xMidYMid meet">

<g transform="translate(0.000000,588.000000) scale(0.100000,-0.100000)"
fill="#000000" stroke="none">
<path d="M0 5126 c1 -568 4 -756 13 -760 9 -3 9 -5 0 -5 -10 -1 -13 -56 -13
-240 l0 -239 27 -7 c16 -4 34 -11 40 -17 14 -11 18 -58 6 -58 -16 1 -45 29
-39 38 3 5 -3 12 -13 15 -19 5 -20 -7 -21 -489 -1 -469 0 -493 17 -488 17 5
17 5 0 -6 -15 -10 -17 -28 -16 -158 1 -81 3 -139 6 -129 2 9 11 17 19 17 8 0
21 -8 29 -17 65 -76 70 -78 80 -27 7 39 -1 57 -15 34 -8 -12 -10 -12 -10 -1 0
8 -7 11 -20 8 -11 -3 -18 -1 -14 4 3 5 0 9 -5 9 -6 0 -11 7 -11 15 0 9 9 15
25 15 13 0 28 8 34 18 10 18 15 12 24 -33 2 -11 9 -19 15 -17 7 1 17 -10 23
-25 13 -36 27 -43 57 -32 14 5 33 7 43 4 13 -4 19 -1 19 8 0 19 -36 50 -49 42
-7 -4 -8 1 -4 12 5 15 3 16 -8 6 -7 -7 -19 -13 -26 -13 -17 0 -17 27 0 33 9 3
9 7 0 19 -13 16 -4 68 17 93 8 9 6 14 -5 19 -9 3 -13 2 -10 -4 3 -6 2 -10 -4
-10 -12 0 -37 41 -33 53 1 5 -7 24 -19 43 -19 32 -49 43 -93 35 -5 -1 -4 5 4
13 17 21 57 20 69 -1 6 -10 11 -15 12 -10 7 36 21 57 36 57 11 0 8 6 -8 21
l-24 20 24 -7 c16 -4 21 -3 17 5 -4 7 -1 9 8 5 22 -8 31 -45 15 -55 -11 -7
-10 -13 8 -30 l21 -22 6 44 c3 24 8 67 9 94 3 39 4 34 5 -21 l2 -71 48 -7 c64
-9 97 -46 121 -141 23 -85 11 -93 -25 -17 -31 64 -38 72 -57 67 -17 -5 -19 -4
-7 4 8 5 11 13 7 17 -11 11 -87 -67 -87 -89 0 -38 35 -117 54 -123 10 -3 51
-34 91 -69 52 -45 76 -61 86 -54 22 14 33 11 19 -6 -20 -24 8 -41 70 -43 77
-4 154 -28 232 -73 72 -42 96 -75 27 -37 -124 69 -149 79 -202 87 -32 4 -60 4
-63 -1 -6 -10 4 -13 81 -28 62 -13 148 -49 200 -84 17 -12 32 -22 34 -23 2 -2
2 -5 -1 -8 -3 -3 -40 13 -81 35 -52 28 -83 39 -97 35 -18 -6 -18 -8 -5 -21 8
-9 15 -20 15 -25 0 -5 7 -9 15 -9 8 0 15 3 15 8 0 4 12 8 26 9 21 1 29 -5 37
-28 6 -16 19 -31 28 -34 9 -3 24 -14 34 -25 15 -17 16 -20 3 -20 -9 0 -18 7
-22 15 -3 8 -12 15 -21 15 -8 0 -15 5 -15 10 0 6 -8 10 -18 10 -24 0 -85 30
-94 46 -5 7 -17 10 -30 6 -20 -5 -21 -4 -10 11 8 9 11 20 8 26 -4 5 2 11 11
14 14 3 12 6 -10 15 -16 7 -37 12 -49 12 -20 0 -20 -1 -2 -45 5 -12 -55 -14
-72 -3 -7 4 -18 1 -25 -8 -27 -32 -99 -57 -99 -34 0 6 11 10 24 10 24 0 76 41
76 60 0 6 -5 8 -10 5 -6 -3 -10 2 -10 11 0 17 -1 17 -12 1 -10 -13 -34 -18
-102 -21 -75 -3 -96 0 -128 16 -21 11 -38 26 -38 34 0 17 -12 18 -27 3 -21
-21 -101 9 -119 43 -17 32 -34 29 -34 -7 0 -23 -30 -42 -49 -31 -4 3 -9 -35
-10 -85 -2 -105 -15 -100 119 -47 109 42 110 43 53 10 -29 -17 -78 -38 -108
-47 -50 -16 -73 -31 -64 -39 4 -3 83 22 124 39 19 9 19 9 0 -12 -11 -11 -44
-26 -72 -34 l-53 -13 0 -352 c0 -327 1 -353 17 -357 17 -4 17 -5 1 -6 -17 -1
-18 -25 -18 -360 l0 -360 23 -4 22 -4 -22 -2 -23 -1 0 -385 0 -385 2000 0
2001 0 -3 319 c-2 176 -6 323 -10 327 -5 4 -24 7 -43 6 -24 -1 -35 3 -35 12 0
10 -10 13 -34 11 -30 -3 -33 -1 -28 18 5 18 3 19 -10 7 -8 -8 -13 -22 -11 -31
3 -9 0 -20 -6 -23 -7 -4 -11 1 -11 13 0 12 -4 21 -10 21 -5 0 -10 -9 -10 -20
0 -11 -4 -20 -9 -20 -20 0 -41 13 -41 25 0 8 -8 11 -20 8 -26 -7 -67 26 -48
39 10 6 7 13 -12 28 -14 11 -30 20 -36 20 -19 0 -36 -28 -29 -48 3 -11 0 -26
-8 -34 -7 -7 -12 -18 -10 -24 4 -12 -54 -26 -59 -15 -2 3 -18 14 -35 23 -31
16 -33 16 -43 0 -8 -15 -9 -15 -10 3 0 16 -2 17 -9 6 -7 -10 -11 0 -16 35 -9
76 -25 124 -39 124 -8 0 -19 13 -24 30 -8 21 -16 28 -26 24 -13 -5 -16 2 -16
34 0 23 5 53 10 68 10 26 11 26 24 8 8 -10 12 -22 10 -25 -2 -4 3 -24 10 -45
8 -22 15 -31 15 -21 1 9 8 17 16 17 7 0 18 7 23 17 6 10 16 14 26 10 10 -4 15
-11 11 -16 -3 -5 11 -15 30 -22 19 -7 35 -20 36 -29 0 -10 2 -11 6 -2 8 19 30
14 51 -13 25 -32 32 -31 32 3 1 26 1 26 15 8 8 -11 15 -34 15 -52 l0 -32 30
14 c21 11 30 23 30 40 0 13 5 24 10 24 6 0 10 -7 10 -15 0 -8 5 -15 10 -15 6
0 10 5 10 10 0 13 33 13 46 0 13 -13 35 3 37 28 1 16 8 22 23 22 12 0 24 4 26
10 1 5 27 15 56 22 48 12 71 28 38 28 -7 0 -19 7 -26 15 -7 8 -21 15 -31 15
-11 0 -19 4 -19 9 0 5 -10 7 -22 3 -17 -4 -20 -2 -15 11 3 9 0 18 -9 21 -26
10 -3 28 27 22 15 -3 31 -1 34 4 3 6 18 10 33 11 l27 1 -25 7 c-15 4 -20 10
-13 14 6 4 19 5 30 2 10 -3 8 0 -5 7 -17 8 -29 9 -40 1 -20 -12 -45 -6 -36 9
3 5 -3 12 -15 15 -12 3 -21 9 -21 14 0 5 -9 9 -20 9 -17 0 -19 3 -10 19 5 11
10 29 10 40 0 15 4 19 16 14 14 -5 16 -2 10 20 -5 21 -3 25 8 21 8 -3 29 8 47
25 20 20 42 31 60 31 19 0 29 5 29 15 0 8 4 15 10 15 5 0 9 15 8 33 -1 25 -9
39 -34 57 -19 14 -34 28 -34 32 0 4 17 8 38 10 l37 3 -32 20 c-35 21 -42 35
-18 35 8 0 15 9 15 20 0 12 -5 17 -13 14 -10 -3 -13 5 -12 31 0 28 -3 35 -18
35 -11 0 -15 -4 -11 -11 12 -20 -19 -29 -38 -12 -10 9 -28 17 -41 19 -12 1
-40 5 -62 8 l-40 6 45 -15 45 -15 -46 6 c-34 3 -51 1 -62 -11 -9 -8 -26 -15
-39 -16 -13 0 -17 -3 -10 -6 22 -9 12 -22 -20 -26 l-33 -4 31 -1 c18 -1 34 -9
37 -16 4 -11 1 -13 -11 -9 -14 6 -15 4 -4 -9 7 -9 22 -18 33 -21 17 -5 20 -2
16 14 -7 27 54 79 93 79 41 0 41 -32 0 -47 -34 -13 -31 3 4 18 17 8 16 8 -9 3
-16 -3 -32 -10 -33 -15 -2 -5 -8 -7 -13 -4 -11 8 -19 -30 -16 -80 1 -25 7 -39
14 -38 7 2 10 -4 7 -12 -4 -9 0 -15 10 -15 18 0 22 -15 6 -25 -5 -3 -10 -1
-10 4 0 23 -38 11 -42 -14 -3 -13 -1 -22 4 -19 20 13 48 -8 48 -36 0 -32 -22
-45 -52 -29 -25 13 -36 4 -22 -19 7 -11 21 -16 38 -14 15 2 26 -2 26 -8 0 -6
-8 -9 -18 -6 -13 5 -18 0 -20 -19 -1 -19 3 -25 18 -25 21 0 27 -15 11 -25 -8
-5 -14 -41 -25 -142 -1 -12 -5 -25 -9 -29 -12 -12 27 -33 63 -34 26 0 31 -3
20 -10 -11 -7 -11 -10 -2 -10 7 0 10 -5 6 -11 -10 -16 -91 -5 -114 16 -11 10
-20 13 -20 7 0 -18 -60 -44 -86 -38 -13 4 -24 11 -24 16 0 6 -9 10 -19 10 -22
0 -96 32 -99 43 -1 4 -2 24 -2 45 l-1 37 -30 -37 c-17 -21 -38 -38 -47 -38
-15 0 -15 2 -2 10 15 10 8 14 -20 11 -18 -2 -60 67 -60 98 0 30 -37 28 -52 -4
-6 -14 -14 -25 -17 -26 -26 -3 -44 -9 -49 -15 -4 -4 1 -4 10 -1 23 8 23 0 -2
-41 -11 -17 -17 -32 -14 -32 3 0 -4 -13 -15 -29 -12 -16 -21 -33 -21 -38 0 -5
-9 -9 -19 -10 -13 -1 -23 8 -29 26 -6 16 -23 34 -39 41 -27 12 -28 15 -25 72
3 42 1 58 -7 54 -6 -4 -11 -12 -11 -17 0 -5 -11 -21 -24 -34 -21 -21 -26 -22
-47 -9 -13 7 -31 16 -39 20 -8 4 -18 12 -22 18 -12 17 -9 65 4 89 10 20 10 21
-5 8 -9 -7 -27 -30 -38 -50 -12 -20 -27 -41 -33 -46 -14 -13 -56 -72 -56 -79
0 -3 -11 -17 -25 -32 -30 -32 -31 -41 -7 -48 9 -3 -8 -3 -38 0 -30 3 -125 7
-210 10 -85 3 -161 7 -168 9 -6 2 -44 -3 -83 -12 -55 -12 -78 -23 -98 -46
l-27 -30 -30 26 c-67 60 -73 69 -68 101 12 74 14 78 34 73 21 -5 45 16 36 32
-3 5 -2 20 3 33 5 13 5 50 0 83 -8 60 -28 89 -54 79 -7 -3 -24 0 -37 7 -13 7
-34 13 -48 14 -71 3 -80 6 -80 20 0 8 6 15 13 16 6 0 2 5 -10 11 -22 11 -40
59 -28 78 14 23 71 9 118 -30 17 -13 18 -12 12 15 -16 75 -16 77 -3 73 7 -3
13 -19 13 -36 0 -16 3 -33 7 -37 14 -14 30 8 26 36 -3 16 -1 29 4 29 5 0 7 10
6 23 -2 12 1 24 7 27 6 3 9 -16 8 -50 -1 -30 3 -62 8 -70 6 -11 8 -6 9 17 0
17 4 33 9 35 11 3 15 333 5 386 -5 26 -11 33 -28 31 -45 -3 -56 1 -56 21 0 23
31 41 38 22 6 -19 29 -14 27 5 -1 10 -12 38 -23 63 -12 25 -22 52 -22 61 0 9
-9 26 -20 39 -13 14 -20 37 -20 61 0 34 3 38 21 36 11 -2 33 -15 49 -30 l28
-27 10 68 c11 71 9 418 -3 566 -7 80 -6 91 11 103 10 7 12 13 6 13 -25 0 -10
16 26 27 35 10 36 10 15 -4 -13 -9 -23 -19 -23 -24 0 -5 18 3 40 17 22 15 37
30 34 35 -3 5 8 22 24 38 16 17 39 51 51 76 12 26 25 45 27 42 10 -9 -32 -91
-62 -123 -36 -39 -47 -77 -12 -43 13 13 31 34 40 48 11 17 18 20 18 11 0 -8
12 8 26 35 30 58 86 105 124 105 30 0 56 -23 45 -40 -4 -7 2 -7 19 0 16 6 27
6 31 0 4 -6 16 -11 28 -11 18 -1 19 -2 4 -6 -10 -3 -17 -12 -15 -21 2 -13 17
-18 57 -20 63 -4 103 -28 95 -56 -4 -10 -1 -22 5 -25 6 -4 13 -23 16 -41 3
-19 2 -28 -1 -20 -8 18 -62 70 -74 70 -4 0 -18 -11 -31 -25 -31 -32 -42 -32
-27 0 6 14 15 25 20 25 4 0 8 5 8 10 0 13 -97 13 -105 0 -3 -5 -15 -10 -26
-10 -20 0 -26 -15 -9 -25 17 -11 11 -35 -9 -35 -10 0 -26 -11 -35 -25 -20 -30
-20 -32 2 -38 14 -4 14 -6 -6 -12 -29 -10 -29 -25 1 -18 19 4 18 1 -10 -24
-20 -18 -43 -29 -60 -28 -23 0 -28 -4 -27 -23 0 -17 -4 -22 -19 -20 -30 4 -36
-30 -47 -237 -12 -225 -30 -346 -69 -457 -42 -117 -41 -151 8 -220 27 -39 41
-73 49 -117 6 -33 15 -69 21 -78 7 -14 0 -28 -32 -68 -23 -27 -44 -52 -47 -55
-22 -20 -71 -92 -66 -97 5 -5 32 17 119 96 52 48 70 87 63 138 -3 25 -11 52
-17 59 -8 9 -4 17 15 29 14 10 26 27 26 38 0 20 0 21 -15 1 -15 -18 -15 -16
-9 26 8 56 16 66 58 74 33 6 117 46 145 69 11 9 19 5 41 -21 l27 -32 25 19
c14 11 28 18 31 14 14 -13 83 -12 104 3 13 8 23 10 23 5 0 -5 -6 -12 -12 -14
-8 -4 -3 -9 11 -13 23 -7 23 -8 6 -20 -10 -8 -16 -16 -13 -19 3 -3 0 -25 -7
-48 -10 -35 -17 -42 -38 -42 -35 -1 -43 -11 -26 -32 12 -17 12 -17 -5 -2 -15
14 -16 22 -7 55 11 43 11 114 0 114 -4 0 -12 -13 -19 -30 -7 -16 -17 -30 -22
-30 -10 0 -7 -33 7 -75 4 -11 -7 1 -23 26 -30 46 -81 94 -90 84 -11 -10 29
-72 54 -84 15 -6 24 -14 21 -17 -3 -3 -15 -1 -26 6 -12 6 -21 7 -21 1 0 -5
-12 -6 -27 -2 -25 7 -28 12 -25 46 l3 38 -39 -6 c-22 -2 -54 -15 -71 -28 -35
-26 -43 -49 -9 -25 12 9 37 16 55 16 29 0 33 -3 34 -27 1 -16 0 -32 -1 -38 -2
-5 -2 -31 -1 -57 1 -32 -3 -49 -13 -55 -7 -4 -16 -26 -18 -48 -1 -22 -9 -46
-16 -54 -10 -10 -10 -16 0 -30 7 -9 8 -13 4 -9 -13 11 -37 -27 -30 -46 3 -9 2
-16 -4 -16 -5 0 -15 -13 -22 -30 -7 -16 -16 -27 -21 -24 -5 3 -9 -1 -9 -9 0
-8 -7 -17 -15 -21 -9 -3 -12 -12 -8 -22 4 -12 3 -15 -5 -10 -8 4 -20 -10 -34
-38 -12 -26 -26 -46 -30 -46 -4 0 -8 -6 -8 -13 0 -7 -8 -22 -17 -33 -23 -26
-83 -111 -83 -118 0 -3 20 3 45 14 25 11 45 15 45 9 0 -5 12 -7 27 -5 15 3 65
-3 112 -14 48 -11 119 -25 159 -33 l72 -13 0 29 c0 67 127 271 148 238 7 -9
12 -10 16 -2 4 6 2 11 -3 11 -20 0 -11 17 13 28 44 20 93 24 117 11 l24 -13
-25 -7 -25 -7 26 -1 c46 -2 41 -26 -7 -40 -24 -7 -50 -23 -58 -36 -9 -13 -26
-33 -38 -44 -17 -17 -24 -18 -37 -8 -12 8 -11 6 2 -9 17 -20 17 -22 -1 -45
-11 -13 -23 -35 -27 -47 -6 -22 -5 -23 14 -13 11 6 39 34 63 62 48 56 117 111
130 103 4 -3 8 -21 8 -39 0 -28 -3 -33 -17 -29 -16 5 -15 4 1 -10 11 -9 20
-26 21 -38 3 -38 29 -32 82 19 38 37 52 60 62 98 7 28 15 57 17 66 4 15 43 39
63 39 16 0 24 -72 9 -81 -11 -7 -11 -9 1 -9 10 0 12 -8 7 -32 -10 -50 -15
-148 -8 -148 4 1 25 23 47 51 22 27 50 61 61 74 18 19 22 37 23 101 1 49 6 81
14 86 8 5 13 0 15 -15 5 -30 57 -93 82 -100 11 -3 20 -2 20 3 0 4 -9 10 -19
13 -21 5 -61 62 -61 86 0 8 6 11 15 7 11 -4 15 1 15 17 0 17 2 19 10 7 18 -28
17 -4 -1 35 -11 22 -16 29 -13 15 11 -46 -12 -8 -50 79 -20 47 -36 92 -36 100
-1 9 -12 30 -25 46 l-25 30 0 -32 c0 -17 7 -38 15 -47 20 -19 19 -27 -2 -19
-12 5 -14 3 -8 -7 4 -7 9 -27 10 -44 5 -98 5 -101 14 -87 18 27 24 -56 12
-156 -14 -120 -25 -136 -19 -28 4 70 4 76 -7 46 -14 -43 -25 -29 -32 42 -2 29
-6 65 -7 81 -2 17 -8 32 -14 34 -7 2 -12 8 -12 13 0 14 -33 48 -42 43 -22 -14
-4 27 22 49 l29 25 -39 36 c-22 20 -35 36 -28 36 6 0 23 -10 36 -22 l25 -23
-12 22 c-6 13 -20 27 -30 33 -39 20 -51 40 -47 79 2 20 -2 48 -9 62 -12 22
-11 26 13 45 l26 22 33 -25 c35 -27 44 -22 16 9 -16 18 -16 18 3 12 10 -4 25
-11 32 -17 6 -5 12 -6 12 -2 0 4 7 2 15 -5 10 -9 15 -9 15 -1 0 16 35 14 49
-3 6 -8 35 -24 63 -36 46 -20 56 -21 92 -10 23 7 57 20 77 30 41 21 105 83 90
88 -15 5 -1 32 16 32 8 0 12 -5 8 -12 -3 -7 2 -2 12 11 24 33 39 80 48 146 6
49 5 54 -10 49 -16 -6 -34 9 -35 29 0 4 16 7 36 7 28 0 35 -3 30 -15 -3 -8 -1
-15 5 -15 7 0 9 24 7 65 -1 36 0 65 5 65 4 0 7 17 7 38 0 31 5 40 31 55 17 9
39 17 49 17 15 0 18 7 17 42 -1 28 3 43 12 46 8 2 11 0 8 -6 -11 -16 31 -61
51 -55 33 8 102 79 102 104 0 19 -2 21 -9 10 -8 -12 -11 -9 -17 12 -3 16 -4
30 -1 33 7 7 -30 44 -43 44 -5 0 -10 -7 -10 -15 0 -8 -9 -15 -20 -15 -11 0
-23 -7 -26 -15 -7 -17 -44 -21 -44 -5 0 6 -6 10 -14 10 -14 0 -32 30 -18 30 4
0 13 4 21 9 12 8 11 12 -4 28 -13 13 -20 14 -23 5 -2 -6 -11 -12 -20 -12 -10
0 -13 -3 -6 -8 9 -6 34 -97 34 -125 0 -22 -25 13 -36 51 l-11 37 -8 -47 c-4
-27 -11 -48 -16 -48 -5 0 -9 -10 -9 -21 0 -17 3 -19 14 -10 9 7 17 8 20 2 3
-5 15 -7 26 -4 11 3 20 1 20 -5 0 -11 -47 -22 -76 -18 -25 4 -29 37 -10 75 17
33 22 91 7 91 -5 0 -18 -11 -29 -25 -11 -14 -27 -25 -36 -25 -9 0 -16 -4 -16
-10 0 -5 5 -10 10 -10 6 0 10 -4 10 -10 0 -5 -13 -7 -28 -4 -31 6 -37 -1 -72
-97 -11 -30 -28 -64 -38 -75 -9 -11 -26 -35 -36 -54 -11 -18 -29 -45 -40 -58
-78 -93 -75 -91 -99 -79 -13 7 -43 34 -67 60 -41 43 -47 56 -62 135 l-17 87 4
-125 c5 -121 5 -124 -11 -92 -9 17 -23 32 -30 32 -8 0 -15 6 -15 13 -1 6 -2
17 -4 22 -1 6 -3 17 -4 25 -2 9 -6 6 -9 -8 -7 -21 -9 -20 -45 27 -20 28 -36
52 -35 53 2 2 -6 17 -18 33 -31 45 -35 63 -24 107 14 51 20 183 9 200 -7 10
-9 10 -9 1 0 -25 -19 -12 -25 17 -4 17 -10 28 -14 26 -4 -3 -18 -37 -31 -75
-13 -39 -25 -69 -28 -66 -3 2 -6 80 -8 172 -4 200 -3 193 -20 218 -13 18 -14
18 -14 -9 0 -35 -32 -145 -37 -129 -3 7 3 47 12 88 18 81 14 116 -5 43 -6 -23
-18 -66 -26 -94 -8 -28 -14 -58 -14 -67 0 -29 -20 -29 -31 0 -10 26 -12 26
-19 8 -6 -17 -13 -9 -40 45 -18 36 -36 67 -40 70 -4 3 -12 15 -19 28 -9 16 -9
22 0 22 8 0 8 4 -1 14 -6 8 -19 12 -27 9 -11 -4 -14 -2 -9 5 6 10 -26 36 -46
37 -3 0 -21 11 -40 25 -18 14 -37 24 -41 22 -5 -1 -6 2 -2 7 11 18 -55 71 -89
71 -29 1 -30 2 -12 15 13 10 24 11 37 5 10 -6 32 -10 49 -10 31 0 32 1 26 35
-4 19 -1 53 6 77 l12 42 10 -34 c5 -19 8 -57 7 -83 -1 -37 3 -49 17 -54 9 -3
29 -15 44 -25 15 -11 33 -15 44 -11 11 4 15 2 11 -4 -12 -19 41 -38 72 -26 21
8 36 7 59 -3 31 -13 156 -105 181 -133 13 -16 -5 15 -33 54 -20 28 -32 95 -17
95 8 0 10 12 5 36 -6 35 -6 36 16 24 12 -6 24 -9 27 -6 3 3 -6 10 -21 15 -14
6 -26 15 -26 21 0 17 29 11 50 -10 24 -24 30 -25 30 -5 0 8 -12 21 -27 29 -16
9 -21 15 -13 16 13 0 13 2 0 9 -8 6 -19 7 -25 4 -5 -4 -7 -3 -3 2 11 12 -19
61 -52 85 -36 25 -39 60 -10 97 11 14 20 32 20 40 0 9 12 25 27 36 30 24 64
30 56 10 -4 -10 7 -13 41 -13 74 0 74 32 1 75 -17 10 -16 14 11 55 15 25 29
46 30 48 1 1 13 -2 27 -7 25 -10 28 -17 43 -103 5 -34 3 -39 -20 -49 -17 -8
-25 -18 -22 -28 3 -9 10 -36 16 -59 11 -42 12 -43 30 -27 10 9 26 32 35 51 18
38 35 45 35 14 0 -11 5 -20 11 -20 6 0 8 9 4 20 -4 11 -2 20 4 20 6 0 11 -7
11 -15 0 -8 5 -15 10 -15 6 0 10 8 10 17 0 15 2 14 14 -3 13 -16 15 -17 21 -3
9 24 -1 113 -14 117 -6 2 -11 -7 -11 -21 0 -20 -4 -24 -19 -20 -23 6 -39 -16
-20 -28 12 -8 12 -10 -1 -18 -8 -5 -17 -8 -22 -5 -7 5 -6 12 7 49 4 11 9 50
12 88 3 57 1 67 -13 67 -10 0 -14 5 -10 15 11 30 -53 72 -69 45 -10 -16 -28
-12 -21 5 3 10 -1 18 -12 22 -9 3 -30 15 -45 26 -18 12 -39 18 -58 15 -23 -4
-29 -1 -29 13 0 27 -15 31 -101 32 -57 1 -79 5 -79 14 0 7 6 13 14 13 8 0 17
4 20 8 2 4 -12 7 -32 5 -20 -1 -28 0 -17 3 34 10 39 23 11 30 -14 3 -26 12
-26 19 0 20 -25 25 -131 25 -81 0 -101 -3 -106 -16 -3 -8 -12 -13 -19 -10 -8
3 -11 0 -7 -10 3 -7 13 -14 22 -15 9 0 0 -7 -19 -14 l-35 -13 40 -2 c40 -2 40
-2 -21 -20 -34 -10 -69 -22 -77 -26 -28 -16 -236 -221 -230 -227 7 -7 -23 -39
-34 -36 -4 1 -19 -19 -32 -46 -20 -39 -22 -51 -12 -67 7 -12 9 -36 5 -70 -5
-37 -4 -49 5 -44 6 4 11 16 11 26 0 10 4 22 10 25 14 9 12 -21 -4 -86 -10 -38
-12 -67 -6 -93 5 -23 4 -49 -2 -66 -5 -16 -8 -37 -5 -47 3 -14 8 -10 21 17 16
34 17 34 10 5 -4 -16 -10 -47 -14 -67 -4 -21 -12 -44 -18 -51 -6 -7 -9 -22 -6
-33 7 -27 -12 -74 -31 -74 -8 0 -15 9 -15 20 0 11 -6 20 -13 20 -43 0 -50 142
-7 153 15 4 18 23 26 153 10 178 6 280 -11 314 -7 14 -18 50 -26 80 -7 30 -22
64 -32 75 -16 18 -20 18 -30 5 -7 -8 -22 -20 -34 -27 -28 -16 -33 -3 -33 90
-1 84 -18 132 -46 132 -13 0 -20 8 -22 25 -2 14 -8 42 -13 63 -8 32 -14 37
-38 37 -26 0 -29 4 -34 40 -6 47 -22 70 -48 70 -23 0 -33 17 -31 53 3 39 -10
52 -64 68 -41 12 -44 16 -39 39 4 14 10 26 14 28 5 1 6 13 4 26 -3 13 0 27 6
30 17 11 13 41 -9 61 -11 10 -17 22 -14 26 3 5 -2 16 -10 25 -9 8 -16 22 -16
31 0 15 -36 53 -50 53 -4 0 -19 10 -33 23 -19 16 -27 33 -28 64 -3 49 -3 49
-109 63 -250 33 -348 49 -374 59 -25 10 -27 14 -15 25 8 7 45 21 84 30 94 23
103 32 70 66 -24 25 -27 60 -5 60 5 0 24 10 43 23 37 23 52 60 36 89 -20 38
-10 55 44 77 76 32 99 54 97 93 -3 52 -2 54 40 67 29 9 40 17 40 31 0 11 -4
20 -9 20 -12 0 -22 45 -15 64 4 11 19 16 49 16 36 0 50 6 80 35 21 19 46 37
57 41 11 3 17 12 14 20 -8 21 4 44 23 44 9 0 39 -6 67 -13 55 -14 94 -6 94 21
0 7 14 27 30 42 17 16 33 39 35 52 3 13 7 35 11 51 l6 27 -901 0 -902 0 1
-754z m460 -232 c0 -24 -3 -25 -27 -19 -38 9 -41 14 -19 31 30 21 46 17 46
-12z m-391 -161 c36 -23 52 -43 35 -43 -8 0 -94 60 -94 65 0 11 21 3 59 -22z
m192 -75 l23 -33 -27 24 c-15 14 -27 28 -27 33 0 15 8 8 31 -24z m-92 6 c17
-9 38 -28 46 -44 8 -16 24 -35 35 -43 36 -25 61 -119 56 -211 -3 -45 -6 -81
-7 -81 -1 0 -3 -22 -4 -50 -4 -67 -4 -65 -15 -65 -7 0 -9 39 -4 118 3 64 6
133 5 152 -2 53 -55 151 -106 198 -51 47 -52 49 -6 26z m152 -51 c13 -15 12
-15 -8 -4 -24 12 -29 21 -14 21 5 0 15 -7 22 -17z m-131 -18 c13 -14 21 -25
18 -25 -2 0 -15 11 -28 25 -13 14 -21 25 -18 25 2 0 15 -11 28 -25z m435 -21
c-29 -22 -91 -38 -112 -29 -13 6 -1 11 44 20 35 6 66 15 70 18 3 4 9 7 12 7 3
0 -3 -7 -14 -16z m-318 -46 c-3 -8 -6 -5 -6 6 -1 11 2 17 5 13 3 -3 4 -12 1
-19z m387 3 c3 -5 -6 -13 -22 -19 -15 -5 -39 -21 -53 -34 -51 -48 -58 -68 -63
-181 -2 -60 -7 -111 -9 -114 -3 -3 -22 0 -42 7 l-36 12 7 61 c5 41 13 66 25
77 13 10 17 22 13 38 -8 30 -26 28 -18 -2 3 -13 1 -27 -5 -30 -7 -5 -10 3 -10
21 2 48 10 63 30 63 27 0 52 26 47 48 -4 13 1 18 17 20 34 3 75 20 75 32 0 12
37 13 44 1z m-333 -35 c5 3 9 -7 9 -22 0 -27 -1 -27 -15 -8 -8 10 -14 26 -14
34 0 10 2 11 6 2 2 -6 9 -10 14 -6z m136 -43 c-3 -10 -5 -2 -5 17 0 19 2 27 5
18 2 -10 2 -26 0 -35z m33 1 c0 -8 -5 -12 -10 -9 -6 4 -8 11 -5 16 9 14 15 11
15 -7z m-170 -24 c0 -5 -2 -10 -4 -10 -3 0 -8 5 -11 10 -3 6 -1 10 4 10 6 0
11 -4 11 -10z m-166 -15 c-4 -8 -10 -12 -15 -9 -14 8 -10 24 6 24 9 0 12 -6 9
-15z m446 -28 c0 -13 -19 -37 -30 -37 -3 0 -7 11 -8 25 -1 19 3 25 18 25 11 0
20 -6 20 -13z m-385 -7 c4 -6 -13 -10 -44 -10 -28 0 -51 5 -51 10 0 6 20 10
44 10 25 0 48 -4 51 -10z m95 -35 c7 -9 10 -25 6 -41 -8 -32 -15 -27 -26 20
-8 38 -1 46 20 21z m299 -11 c-7 -21 -6 -31 7 -45 10 -11 15 -22 12 -25 -9 -9
-98 39 -98 53 0 10 5 11 19 3 24 -12 54 -2 47 15 -5 14 2 25 15 25 5 0 4 -12
-2 -26z m51 -38 c0 -3 -4 -8 -10 -11 -5 -3 -10 -1 -10 4 0 6 5 11 10 11 6 0
10 -2 10 -4z m-359 -71 c-9 -30 -9 -30 -10 10 -1 25 2 36 9 29 6 -6 6 -21 1
-39z m455 -3 c-4 -3 -12 0 -19 7 -9 9 -9 14 3 21 11 7 16 5 18 -6 2 -9 1 -18
-2 -22z m-6 -18 c0 -8 -19 -13 -24 -6 -3 5 1 9 9 9 8 0 15 -2 15 -3z m-481
-78 c-2 -2 -15 -9 -29 -15 -24 -11 -24 -11 -6 3 16 13 49 24 35 12z m2411 -86
c0 -5 -4 -10 -10 -10 -5 0 -10 5 -10 10 0 6 5 10 10 10 6 0 10 -4 10 -10z
m-2230 -30 c0 -5 -2 -10 -4 -10 -3 0 -8 5 -11 10 -3 6 -1 10 4 10 6 0 11 -4
11 -10z m470 -31 c0 -5 -7 -9 -15 -9 -8 0 -15 7 -15 15 0 9 6 12 15 9 8 -4 15
-10 15 -15z m-674 -16 c-10 -10 -19 5 -10 18 6 11 8 11 12 0 2 -7 1 -15 -2
-18z m44 6 c0 -18 -2 -19 -15 -9 -15 12 -12 30 6 30 5 0 9 -10 9 -21z m72 -12
c12 -19 9 -27 -7 -21 -8 4 -15 11 -15 17 0 6 -3 7 -7 4 -3 -4 4 -18 17 -32 22
-23 22 -29 16 -122 -4 -58 -13 -103 -20 -111 -15 -16 -78 -22 -114 -13 -24 7
-26 10 -23 69 3 82 10 115 24 124 9 5 8 8 -3 8 -13 0 -13 1 0 10 10 6 11 10 3
10 -20 0 -15 24 6 37 15 10 22 9 36 -7 9 -10 15 -24 14 -32 -1 -7 -1 -22 1
-33 l1 -20 8 20 c5 11 6 26 3 34 -3 7 1 17 9 22 11 6 11 11 1 21 -6 6 -12 18
-12 26 0 17 50 8 62 -11z m34 4 c-4 -5 9 -6 29 -1 22 5 35 4 35 -2 0 -6 9 -8
20 -5 13 3 20 0 20 -9 0 -8 5 -13 11 -11 6 1 14 -4 17 -12 3 -10 0 -12 -11 -8
-14 5 -15 3 -4 -13 6 -11 14 -20 17 -20 4 0 -3 -132 -9 -182 -1 -4 -15 -3 -32
2 -17 5 -51 7 -76 4 l-45 -5 7 53 c4 29 8 75 9 102 2 40 6 51 24 59 17 8 26 6
40 -10 14 -17 19 -18 30 -7 11 12 8 16 -15 25 -15 7 -37 11 -48 11 -20 -1 -45
15 -45 29 0 5 7 9 16 9 8 0 13 -4 10 -9z m1969 -47 c-16 -14 -45 -38 -62 -53
-31 -26 -42 -29 -25 -6 14 20 96 85 106 85 6 0 -2 -12 -19 -26z m-1400 -4 c-3
-5 -13 -10 -21 -10 -8 0 -12 5 -9 10 3 6 13 10 21 10 8 0 12 -4 9 -10z m-269
-10 c8 0 14 -4 14 -8 0 -5 -13 -7 -30 -4 -16 2 -30 9 -30 14 0 6 7 7 16 4 9
-3 22 -6 30 -6z m-74 -126 l-8 -59 -7 46 c-9 54 1 111 14 87 5 -9 5 -42 1 -74z
m1958 77 c0 -5 -7 -14 -15 -21 -16 -14 -18 -10 -9 14 6 17 24 22 24 7z m-1679
-48 c13 -15 12 -15 -8 -4 -24 12 -29 21 -14 21 5 0 15 -7 22 -17z m-21 -34 c0
-6 -4 -7 -10 -4 -5 3 -10 11 -10 16 0 6 5 7 10 4 6 -3 10 -11 10 -16z m2280
-19 c0 -5 -4 -10 -10 -10 -5 0 -10 5 -10 10 0 6 5 10 10 10 6 0 10 -4 10 -10z
m-2427 -29 c22 -38 22 -41 -8 -41 -22 0 -25 4 -25 35 0 43 10 44 33 6z m127
-33 c0 -19 -15 -24 -24 -10 -3 5 -2 19 1 31 4 17 8 19 14 9 5 -7 9 -21 9 -30z
m-63 10 c-3 -13 -9 -40 -12 -60 -4 -21 -11 -38 -15 -38 -5 0 -6 17 -4 38 9 65
14 82 25 82 7 0 9 -10 6 -22z m557 7 c3 -8 1 -15 -4 -15 -6 0 -10 7 -10 15 0
8 2 15 4 15 2 0 6 -7 10 -15z m1126 -87 c-1 -7 -7 -24 -15 -38 -8 -14 -15 -36
-15 -50 -1 -14 -4 -19 -7 -12 -7 17 17 112 28 112 5 0 9 -6 9 -12z m-1380
-110 c0 -14 5 -18 15 -14 20 7 45 -3 45 -19 0 -7 6 -15 14 -18 19 -7 14 -61
-8 -82 -25 -26 -39 -55 -25 -55 8 0 8 -4 2 -12 -6 -7 -13 -25 -17 -40 -15 -65
-96 -116 -110 -70 -5 13 -15 18 -36 17 -28 -2 -34 3 -27 23 1 4 11 7 22 8 49
3 55 5 55 19 0 8 -7 15 -15 15 -8 0 -15 -5 -15 -11 0 -5 -4 -7 -10 -4 -20 12
-9 23 30 29 22 3 40 11 40 17 0 11 -50 6 -86 -8 -10 -4 -14 2 -14 20 0 14 6
27 13 30 6 2 9 8 4 12 -4 5 -18 2 -32 -5 -14 -7 -27 -11 -30 -9 -2 3 -1 38 2
78 5 65 8 72 20 56 14 -20 43 -29 43 -14 0 5 6 9 13 9 6 0 30 14 51 30 42 31
56 31 56 -2z m1389 0 c-1 -13 1 -36 6 -51 8 -32 8 -32 -23 -42 -21 -6 -22 -4
-16 19 4 16 2 26 -5 26 -6 0 -11 -4 -11 -10 0 -5 -7 -7 -15 -4 -8 4 -15 1 -15
-5 0 -6 7 -11 16 -11 8 0 12 -5 9 -10 -4 -6 -14 -8 -24 -5 -9 3 -26 -2 -37
-10 -29 -22 -37 -18 -17 10 10 14 42 41 71 61 28 19 52 39 52 45 0 5 3 9 6 9
3 0 4 -10 3 -22z m-1156 -5 c-7 -18 -22 -33 -35 -33 -6 0 33 49 39 50 1 0 -1
-8 -4 -17z m1318 -13 c-18 -16 -27 -18 -37 -9 -8 6 -14 8 -14 5 0 -4 -6 -4
-12 1 -11 7 17 15 77 21 6 1 -1 -8 -14 -18z m-2325 1 c27 -5 78 -12 114 -16
36 -4 67 -8 70 -10 3 -2 36 -6 74 -10 83 -7 86 -9 86 -42 l0 -26 -72 7 c-40 4
-131 15 -203 24 -111 15 -130 20 -129 35 1 9 -4 17 -12 17 -8 0 -14 7 -14 15
0 17 18 19 86 6z m-138 -48 c-4 -19 -75 -37 -84 -21 -14 22 7 38 46 38 34 0
41 -3 38 -17z m1352 -37 c0 -12 -5 -7 -19 24 -11 24 -11 24 3 6 9 -11 16 -24
16 -30z m1105 35 c3 -6 -2 -14 -12 -19 -27 -14 -83 -23 -83 -13 0 13 28 33 38
28 4 -3 14 -2 22 4 19 11 27 11 35 0z m59 -45 c-3 -8 11 -27 35 -47 23 -18 39
-34 38 -36 -10 -9 -66 21 -70 38 -3 11 -14 19 -26 19 -28 0 -27 14 2 28 12 6
23 11 24 11 1 1 0 -5 -3 -13z m-2394 -16 c0 -5 -4 -10 -10 -10 -5 0 -10 5 -10
10 0 6 5 10 10 10 6 0 10 -4 10 -10z m453 -7 c39 -8 35 -33 -6 -33 -35 0 -57
15 -57 38 0 9 6 12 18 7 9 -3 29 -9 45 -12z m-383 3 c0 -11 -19 -15 -25 -6 -3
5 1 10 9 10 9 0 16 -2 16 -4z m50 -16 c0 -5 -4 -10 -10 -10 -5 0 -10 5 -10 10
0 6 5 10 10 10 6 0 10 -4 10 -10z m64 -11 c-3 -5 -10 -7 -15 -3 -5 3 -7 10 -3
15 3 5 10 7 15 3 5 -3 7 -10 3 -15z m86 -5 c0 -8 -5 -12 -10 -9 -6 4 -8 11 -5
16 9 14 15 11 15 -7z m73 -8 c-3 -16 -10 -23 -19 -19 -20 7 -17 31 4 36 9 3
18 5 18 6 1 0 -1 -10 -3 -23z m-328 4 c-3 -5 -11 -10 -16 -10 -6 0 -7 5 -4 10
3 6 11 10 16 10 6 0 7 -4 4 -10z m50 0 c3 -5 -1 -10 -9 -10 -9 0 -16 5 -16 10
0 6 4 10 9 10 6 0 13 -4 16 -10z m64 -58 c-9 -40 -17 -51 -28 -34 -5 9 -16 5
-39 -14 -32 -27 -35 -47 -4 -38 9 2 1 -3 -18 -12 -19 -9 -53 -19 -74 -22 l-39
-5 19 26 c10 15 26 27 34 27 12 0 12 2 2 8 -7 5 -10 16 -6 25 7 20 47 34 52
18 2 -6 11 -11 19 -11 9 0 13 6 10 15 -4 8 -2 17 3 20 6 4 10 1 10 -4 0 -18
14 -12 29 10 11 19 11 21 -4 16 -9 -4 -14 -3 -11 2 3 5 16 8 29 7 22 -1 23 -4
16 -34z m79 13 c0 -18 -6 -25 -19 -25 -12 0 -16 5 -13 15 4 9 0 15 -7 15 -11
0 -11 3 1 10 25 16 38 11 38 -15z m2082 5 c0 -5 -15 -10 -32 -10 -25 0 -29 3
-18 10 20 13 50 13 50 0z m-485 -86 c-21 -51 -29 -38 -8 16 9 23 19 38 21 32
1 -5 -4 -27 -13 -48z m-557 -7 c36 -12 41 -23 15 -30 -14 -4 -13 -5 4 -6 12 0
25 -6 28 -12 4 -6 13 -8 19 -6 9 4 11 -3 8 -19 -5 -29 -15 -30 -33 -3 -10 14
-35 25 -84 35 -77 16 -107 34 -59 34 28 1 28 1 9 16 -19 14 -17 15 20 9 22 -4
55 -12 73 -18z m170 -73 c2 -11 0 -15 -5 -9 -4 6 -25 19 -45 30 -52 27 -48 38
5 16 25 -11 43 -25 45 -37z m526 29 c-6 -25 -24 -56 -24 -41 0 10 22 68 26 68
2 0 1 -12 -2 -27z m416 17 c12 -8 11 -10 -7 -10 -12 0 -25 5 -28 10 -8 13 15
13 35 0z m-1495 -45 c-43 -26 -60 -31 -49 -14 7 11 61 38 79 39 6 0 -8 -11
-30 -25z m-995 -17 c23 -25 26 -48 7 -48 -7 0 -17 -10 -22 -22 -6 -12 -17 -24
-25 -26 -13 -5 -13 -3 0 13 14 17 14 17 -7 7 -14 -8 -24 -9 -28 -2 -3 5 -11
10 -16 10 -6 0 -7 -4 -4 -10 10 -16 -11 -12 -25 5 -7 8 -24 16 -39 16 -23 2
-24 2 -3 6 17 3 22 11 23 36 0 32 0 32 12 7 l11 -25 4 28 c3 25 7 27 47 27 33
0 50 -6 65 -22z m-176 -23 c-10 -8 -23 -14 -29 -14 -5 -1 1 8 15 19 14 10 27
17 29 14 3 -2 -4 -11 -15 -19z m416 -36 c-45 -37 -53 -36 -32 1 15 26 48 43
62 32 3 -2 -11 -17 -30 -33z m4 -34 c63 10 61 -10 -4 -37 -54 -22 -58 -29 -35
-48 17 -14 20 -46 5 -55 -9 -5 -15 23 -11 48 2 11 -13 8 -29 -5 -12 -11 -12
-10 -1 5 9 12 12 32 7 63 -5 40 -4 45 8 34 10 -7 30 -9 60 -5z m-304 -19 c0
-3 -4 -8 -10 -11 -5 -3 -10 -1 -10 4 0 6 5 11 10 11 6 0 10 -2 10 -4z m875
-38 c-14 -24 -36 -64 -48 -90 -11 -27 -25 -48 -30 -48 -4 0 -5 6 -1 13 4 6 0
5 -8 -3 -8 -8 -20 -34 -27 -57 -8 -30 -16 -41 -26 -37 -19 8 -19 24 -1 24 8 0
18 14 21 33 4 17 16 44 26 59 11 14 19 29 19 33 0 7 92 113 99 114 1 1 -9 -18
-24 -41z m-967 15 c-10 -2 -28 -2 -40 0 -13 2 -5 4 17 4 22 1 32 -1 23 -4z
m1232 -3 c0 -5 -4 -10 -10 -10 -5 0 -10 5 -10 10 0 6 5 10 10 10 6 0 10 -4 10
-10z m-16 -18 c3 -5 -2 -27 -10 -51 -8 -23 -12 -46 -9 -51 3 -5 1 -11 -4 -14
-5 -3 -7 -16 -4 -29 4 -18 3 -19 -6 -7 -9 12 -11 9 -11 -13 0 -18 -4 -27 -12
-25 -23 8 -20 59 9 129 27 67 36 78 47 61z m116 -2 c0 -24 -26 -58 -71 -94
-28 -21 -52 -36 -55 -34 -9 10 101 138 119 138 4 0 7 -4 7 -10z m1427 -92 c-3
-8 -6 -5 -6 6 -1 11 2 17 5 13 3 -3 4 -12 1 -19z m-210 -3 c3 -9 3 -18 0 -21
-6 -7 -47 18 -47 28 0 15 41 8 47 -7z m-2552 -5 c3 -5 -1 -10 -10 -10 -9 0
-13 5 -10 10 3 6 8 10 10 10 2 0 7 -4 10 -10z m2400 -20 c-10 -31 -65 -88 -65
-68 0 27 11 48 26 48 7 0 18 9 24 20 14 26 23 26 15 0z m-2405 -20 c0 -5 -4
-10 -10 -10 -5 0 -10 5 -10 10 0 6 5 10 10 10 6 0 10 -4 10 -10z m103 -25 c4
-9 -1 -11 -14 -8 -10 3 -19 11 -19 19 0 16 26 8 33 -11z m197 5 c0 -5 -4 -10
-9 -10 -6 0 -13 5 -16 10 -3 6 1 10 9 10 9 0 16 -4 16 -10z m400 0 c0 -5 -2
-10 -4 -10 -3 0 -8 5 -11 10 -3 6 -1 10 4 10 6 0 11 -4 11 -10z m-448 -25 c-3
-20 0 -25 16 -25 12 0 24 5 27 10 12 19 26 10 20 -11 -6 -18 -4 -20 14 -14 19
6 20 4 11 -20 -7 -17 -7 -24 0 -20 6 3 10 1 10 -5 0 -6 5 -8 10 -5 6 3 10 -3
10 -14 0 -24 -28 -29 -48 -9 -9 9 -12 8 -12 -5 0 -22 -20 -22 -21 1 -1 9 -1
21 0 26 3 13 -20 36 -30 30 -5 -3 -9 2 -9 10 0 9 -4 16 -10 16 -14 0 -13 33 2
48 16 16 16 16 10 -13z m588 15 c0 -5 -4 -10 -10 -10 -5 0 -10 5 -10 10 0 6 5
10 10 10 6 0 10 -4 10 -10z m-270 -10 c0 -5 -5 -10 -11 -10 -5 0 -7 5 -4 10 3
6 8 10 11 10 2 0 4 -4 4 -10z m425 -17 c-3 -15 -15 -45 -27 -67 -11 -23 -22
-50 -23 -61 -2 -11 -11 -53 -19 -94 -17 -79 -15 -110 3 -43 6 22 19 46 28 53
14 12 16 12 11 -1 -11 -32 -37 -128 -52 -201 -12 -52 -21 -76 -31 -76 -9 0
-15 10 -15 24 0 13 -4 23 -10 23 -15 0 -11 91 5 120 8 14 14 34 15 46 0 12 11
54 24 95 40 123 113 269 91 182z m-295 7 c0 -5 -4 -10 -10 -10 -5 0 -10 5 -10
10 0 6 5 10 10 10 6 0 10 -4 10 -10z m536 -6 c18 -15 18 -15 -2 -5 -12 6 -24
7 -28 4 -3 -3 -6 -1 -6 5 0 16 12 15 36 -4z m-1191 -34 c-3 -5 -10 -10 -16
-10 -5 0 -9 5 -9 10 0 6 7 10 16 10 8 0 12 -4 9 -10z m46 -3 c-1 -12 -15 -9
-19 4 -3 6 1 10 8 8 6 -3 11 -8 11 -12z m2599 -32 c0 -22 -25 -69 -46 -86 -20
-16 -21 -20 11 59 17 42 35 56 35 27z m-1690 -74 c-10 -20 -30 -29 -30 -14 0
10 33 44 37 39 3 -2 0 -14 -7 -25z m-170 -125 c-12 -12 -13 15 -2 94 l7 55 3
-69 c2 -39 -2 -74 -8 -80z m41 19 l-19 -70 -1 45 c-1 52 32 161 36 119 2 -13
-6 -55 -16 -94z m2995 17 c-18 -16 -18 -16 -6 6 6 13 14 21 18 18 3 -4 -2 -14
-12 -24z m-999 2 c2 -5 -8 -10 -22 -10 -26 -2 -34 11 -12 19 16 7 30 3 34 -9z
m-2114 -62 c73 -37 88 -56 32 -38 -19 6 -35 14 -35 18 0 8 -87 48 -98 46 -4
-1 -18 4 -32 10 -21 10 -19 10 20 5 25 -3 75 -21 113 -41z m2857 36 c0 -4 -4
-8 -10 -8 -5 0 -7 -14 -4 -32 l5 -33 -19 35 c-10 19 -17 37 -16 40 4 9 44 7
44 -2z m-3508 -130 c-6 -6 -15 -8 -19 -4 -4 4 -1 11 7 16 19 12 27 3 12 -12z
m-78 -27 c-12 -12 -81 -26 -71 -15 11 11 71 33 76 28 3 -3 0 -8 -5 -13z m2466
-103 c-15 -71 -30 -66 -30 9 0 40 5 62 18 76 17 19 17 19 20 -4 2 -13 -2 -49
-8 -81z m-2280 88 c0 -5 -88 -46 -97 -46 -9 1 78 49 90 50 4 0 7 -2 7 -4z
m2630 -130 c39 -57 49 -86 31 -86 -5 0 -14 14 -20 31 -6 17 -30 59 -54 92 -24
34 -47 69 -51 77 -14 27 54 -54 94 -114z m355 10 c2 -27 1 -28 -12 -11 -7 11
-13 33 -13 49 1 28 2 29 12 11 6 -11 12 -33 13 -49z m-2325 14 c0 -5 -5 -10
-11 -10 -5 0 -7 5 -4 10 3 6 8 10 11 10 2 0 4 -4 4 -10z m1291 -33 c-10 -9
-11 -8 -5 6 3 10 9 15 12 12 3 -3 0 -11 -7 -18z m-1307 -40 c-3 -9 -10 -17
-15 -17 -11 0 -12 34 -2 44 11 11 24 -9 17 -27z m-519 -13 c33 -10 74 -17 90
-16 25 1 27 0 10 -8 -19 -9 -19 -9 3 -16 26 -8 27 -12 5 -36 -14 -16 -15 -23
-5 -38 16 -26 15 -33 -3 -26 -18 7 -21 -20 -2 -28 8 -3 7 -8 -5 -16 -15 -9
-18 -24 -17 -78 1 -44 3 -58 8 -42 9 32 45 34 49 3 2 -13 10 -23 17 -23 8 0
12 6 10 13 -8 20 10 38 29 31 12 -5 16 -14 13 -30 -3 -20 0 -24 20 -24 20 0
22 4 17 25 -5 21 -3 25 16 25 18 0 21 -4 16 -23 -5 -21 -2 -23 37 -23 125 -3
141 -14 42 -31 -43 -7 -84 -18 -92 -24 -10 -9 -13 -7 -13 10 0 22 -7 26 -28
13 -7 -5 -10 -16 -7 -25 9 -21 -48 -29 -190 -25 -102 3 -110 4 -110 23 0 13
-8 21 -22 23 -18 3 -23 -2 -23 -20 -1 -20 -2 -21 -11 -5 -5 9 -18 17 -28 17
-11 0 -21 6 -24 13 -3 9 23 13 107 15 72 2 113 7 118 15 4 7 8 60 8 120 l0
107 -95 1 c-52 0 -110 1 -128 2 -43 1 -69 -9 -65 -25 4 -22 -12 -118 -20 -118
-18 0 -32 26 -32 60 0 26 -3 31 -10 20 -8 -13 -10 -12 -10 3 0 10 7 25 15 33
8 8 17 31 20 52 10 59 13 62 47 63 18 0 60 11 93 23 34 13 67 19 75 15 8 -4
42 -15 75 -25z m55 6 c0 -5 -4 -10 -10 -10 -5 0 -10 5 -10 10 0 6 5 10 10 10
6 0 10 -4 10 -10z m739 4 c24 -5 31 -12 31 -30 0 -16 6 -24 18 -24 9 0 24 -4
32 -10 11 -7 9 -11 -14 -20 -16 -6 -37 -12 -48 -14 -11 -1 -23 -8 -27 -14 -3
-6 -27 -14 -51 -18 -65 -9 -160 -44 -198 -72 -45 -32 -57 -19 -53 56 2 31 4
72 4 90 0 18 3 29 6 25 3 -5 18 -14 33 -22 24 -12 29 -11 63 15 47 35 134 52
204 38z m-1129 -115 c0 -6 -4 -7 -10 -4 -5 3 -10 11 -10 16 0 6 5 7 10 4 6 -3
10 -11 10 -16z m3110 11 c0 -5 -2 -10 -4 -10 -3 0 -8 5 -11 10 -3 6 -1 10 4
10 6 0 11 -4 11 -10z m-643 -38 c4 -8 1 -18 -5 -20 -7 -2 -12 -18 -12 -34 0
-47 -10 -27 -19 35 -7 53 -6 55 11 46 11 -6 22 -18 25 -27z m-317 11 c-18 -32
-60 -78 -60 -67 0 10 58 84 67 84 2 0 -1 -8 -7 -17z m1005 -3 c3 -5 -1 -10
-10 -10 -9 0 -13 5 -10 10 3 6 8 10 10 10 2 0 7 -4 10 -10z m-211 -6 c23 -9
20 -24 -4 -24 -11 0 -20 7 -20 15 0 17 2 18 24 9z m-2944 -28 c0 -8 -5 -18
-10 -21 -6 -3 -10 3 -10 14 0 12 5 21 10 21 6 0 10 -6 10 -14z m1506 -3 c17
-23 18 -76 2 -71 -7 3 -16 19 -20 36 -5 18 -13 32 -18 32 -6 0 -10 5 -10 10 0
16 32 11 46 -7z m1637 -78 c-3 -9 -8 -14 -10 -11 -3 3 -2 9 2 15 9 16 15 13 8
-4z m-1623 -24 c0 -6 -4 -13 -10 -16 -5 -3 -10 1 -10 9 0 9 5 16 10 16 6 0 10
-4 10 -9z m-528 -24 c-10 -14 -9 -65 2 -89 6 -12 -3 -32 -27 -65 -19 -27 -47
-70 -61 -98 -70 -130 -83 -148 -89 -126 -3 12 -2 19 3 16 10 -6 30 74 30 123
0 31 5 43 25 56 28 18 33 36 10 36 -8 0 -15 -6 -15 -13 0 -19 -37 -18 -44 0
-8 19 20 107 37 121 7 6 19 12 27 14 8 2 21 9 28 16 7 6 22 12 32 12 10 0 22
5 25 10 4 6 11 8 16 4 6 -3 6 -11 1 -17z m156 -20 c3 -14 -1 -18 -19 -15 -12
2 -23 11 -25 21 -3 25 40 19 44 -6z m52 13 c0 -5 -4 -10 -10 -10 -5 0 -10 5
-10 10 0 6 5 10 10 10 6 0 10 -4 10 -10z m55 0 c11 -17 -5 -32 -21 -19 -7 6
-11 15 -8 20 7 12 21 11 29 -1z m1671 4 c18 -5 20 -12 18 -70 -3 -59 -1 -66
19 -74 21 -8 21 -9 -5 -9 -16 -1 -28 -3 -28 -5 0 -2 -3 -11 -6 -20 -4 -11 4
-19 28 -29 l33 -14 -38 -4 c-30 -4 -37 -2 -32 10 3 8 1 17 -4 20 -5 4 -11 13
-13 21 -2 8 -20 27 -42 43 -34 25 -37 32 -32 60 7 35 17 48 23 30 8 -21 22
-14 16 7 -4 16 -2 19 11 14 12 -5 15 -2 10 10 -7 17 5 20 42 10z m-1565 -19
c1 -17 -18 -17 -25 0 -4 11 -1 15 10 13 8 -2 15 -7 15 -13z m84 -6 c4 -11 4
-23 0 -27 -7 -7 -25 17 -25 36 0 20 18 14 25 -9z m-395 -4 c0 -9 -7 -18 -16
-22 -18 -7 -39 11 -30 26 11 17 46 13 46 -4z m453 -16 c3 -13 1 -19 -6 -16
-15 5 -22 37 -9 37 5 0 12 -9 15 -21z m-368 -9 c8 -13 -5 -13 -25 0 -13 8 -13
10 2 10 9 0 20 -4 23 -10z m183 -18 c2 -7 -3 -12 -12 -12 -9 0 -16 7 -16 16 0
17 22 14 28 -4z m-228 0 c0 -13 -12 -22 -22 -16 -10 6 -1 24 13 24 5 0 9 -4 9
-8z m1090 -1 c0 -12 -20 -25 -27 -18 -7 7 6 27 18 27 5 0 9 -4 9 -9z m800 -41
c0 -5 -2 -10 -4 -10 -3 0 -8 5 -11 10 -3 6 -1 10 4 10 6 0 11 -4 11 -10z
m-130 -35 c7 -8 8 -15 2 -15 -5 0 -15 7 -22 15 -7 8 -8 15 -2 15 5 0 15 -7 22
-15z m-2430 -20 c15 -14 36 -18 87 -18 67 -1 67 -1 11 -4 -32 -2 -58 -6 -58
-9 0 -7 88 -125 104 -139 30 -28 37 -55 24 -93 -18 -54 -46 -82 -82 -82 -35 0
-49 8 -59 30 -7 16 -15 29 -61 100 -33 51 -74 90 -94 90 -18 0 -72 -55 -72
-72 0 -33 32 -119 55 -146 28 -33 194 -147 202 -138 6 6 61 -63 82 -102 13
-24 6 -82 -10 -82 -5 0 -9 -7 -9 -15 0 -9 -12 -20 -27 -25 -16 -6 -40 -17 -56
-26 -15 -8 -31 -13 -36 -9 -5 3 -12 1 -16 -4 -3 -5 -13 -10 -23 -9 -48 1 -194
-13 -242 -23 -101 -21 -110 -15 -110 71 l0 55 61 19 c33 10 66 24 73 31 6 7
26 20 44 29 26 14 32 14 32 2 0 -7 -10 -17 -22 -21 -21 -7 -20 -8 8 -12 26 -3
31 -8 27 -24 -3 -10 -10 -19 -17 -19 -6 0 -17 -9 -23 -19 -12 -18 -10 -19 25
-15 113 16 216 36 233 45 22 11 26 58 7 77 -10 10 -10 14 0 21 8 5 2 8 -16 8
-64 0 -271 164 -311 247 -57 117 -21 228 91 285 53 27 146 25 178 -4z m590
-25 c0 -11 -4 -21 -8 -24 -5 -3 -7 -18 -4 -35 3 -20 -2 -35 -17 -50 -12 -12
-19 -25 -17 -30 3 -4 -9 -32 -27 -62 -38 -64 -73 -78 -79 -32 -4 33 49 157 94
219 31 43 58 50 58 14z m-374 4 c-3 -9 -6 -22 -6 -30 0 -28 -17 -13 -18 16 0
21 4 30 15 30 10 0 13 -6 9 -16z m1921 -16 c-3 -7 -5 -2 -5 12 0 14 2 19 5 13
2 -7 2 -19 0 -25z m53 15 c-1 -21 -13 -53 -21 -53 -10 0 -12 43 -2 53 9 9 23
9 23 0z m-1818 -38 c-6 -34 -22 -32 -18 3 5 35 4 34 15 28 4 -3 6 -17 3 -31z
m2105 -2 c0 -16 3 -44 7 -63 3 -19 4 -29 0 -22 -8 17 -24 15 -24 -2 0 -8 -5
-18 -10 -21 -7 -4 -9 2 -4 19 5 20 2 26 -10 26 -9 0 -21 11 -28 25 -14 32 5
59 39 52 13 -2 23 0 23 4 0 5 2 9 4 9 2 0 3 -12 3 -27z m-389 -10 c6 -15 12
-32 12 -39 0 -7 5 -14 11 -16 8 -3 6 -22 -8 -63 l-21 -59 -21 35 c-22 36 -28
69 -11 69 6 0 10 8 10 18 -1 15 -2 15 -13 1 -21 -26 -47 -31 -47 -9 0 13 7 20
20 20 10 0 24 9 30 20 9 16 8 20 -5 20 -18 0 -20 16 -2 23 24 10 32 7 45 -20z
m-1020 -33 c6 -22 12 -52 12 -67 0 -81 -71 -244 -126 -293 l-36 -32 4 -78 c5
-86 17 -110 55 -110 31 0 110 78 142 140 l23 45 -7 -45 c-3 -25 -10 -49 -15
-54 -5 -5 -6 -15 -3 -22 3 -8 0 -14 -6 -14 -6 0 -11 -7 -11 -15 0 -9 -7 -18
-15 -21 -8 -4 -13 -10 -10 -14 3 -4 -11 -22 -30 -39 -54 -47 -134 -40 -182 15
-20 23 -43 99 -43 142 0 11 -14 0 -41 -30 -45 -54 -69 -60 -89 -23 -16 30 -30
32 -37 5 -3 -11 -10 -20 -15 -20 -5 0 -6 -5 -2 -11 3 -6 -14 -31 -40 -56 -55
-52 -68 -52 -139 3 -53 41 -54 48 -31 138 9 33 14 74 11 91 -2 16 1 46 8 65 9
27 9 39 -2 60 -15 30 -17 50 -3 50 6 0 10 -6 10 -14 0 -7 7 -19 15 -26 11 -9
13 -23 9 -51 -5 -29 -1 -46 16 -74 20 -33 22 -45 17 -121 -5 -74 -4 -84 11
-84 16 1 72 43 72 54 0 5 19 37 88 146 l16 25 6 -25 c4 -14 4 -31 1 -37 -4 -7
-5 -31 -3 -53 4 -36 7 -40 33 -40 31 0 79 52 85 93 23 143 45 219 89 312 46
97 71 125 115 125 32 0 36 -3 48 -40z m1584 18 c-7 -7 -12 -8 -12 -2 0 14 12
26 19 19 2 -3 -1 -11 -7 -17z m618 3 c0 -5 -7 -11 -15 -15 -15 -5 -20 5 -8 17
9 10 23 9 23 -2z m-2501 -57 c12 -11 -24 -22 -46 -13 -19 7 -23 5 -23 -11 0
-11 -4 -20 -10 -20 -5 0 -10 13 -10 30 0 29 1 30 42 25 23 -3 44 -8 47 -11z
m2610 -16 c7 11 9 11 14 -1 3 -9 -2 -17 -14 -20 -10 -3 -19 -1 -19 5 0 6 -7 8
-15 4 -8 -3 -15 -1 -15 3 0 14 24 19 33 7 5 -8 10 -7 16 2z m-732 -70 c-3 -8
-6 -5 -6 6 -1 11 2 17 5 13 3 -3 4 -12 1 -19z m-2327 2 c0 -5 -2 -10 -4 -10
-3 0 -8 5 -11 10 -3 6 -1 10 4 10 6 0 11 -4 11 -10z m485 -41 c9 -53 0 -60
-19 -14 -20 46 -20 55 -2 55 9 0 17 -16 21 -41z m2525 21 c0 -5 -4 -10 -10
-10 -5 0 -10 5 -10 10 0 6 5 10 10 10 6 0 10 -4 10 -10z m-2940 -4 c0 -3 -4
-8 -10 -11 -5 -3 -10 -1 -10 4 0 6 5 11 10 11 6 0 10 -2 10 -4z m-96 -51 c8
-22 -4 -47 -20 -41 -10 4 -13 -3 -11 -29 2 -31 5 -35 29 -35 30 0 74 -45 84
-87 17 -65 -20 -228 -50 -223 -5 1 -12 -3 -16 -9 -9 -15 -70 -17 -97 -3 -57
31 -48 215 15 285 9 10 17 30 18 45 0 15 2 45 3 67 1 30 4 36 11 25 9 -13 14
-7 11 13 -2 13 17 7 23 -8z m425 -40 c0 -5 -6 1 -14 15 -8 14 -14 30 -14 35 0
6 6 -1 14 -15 8 -14 14 -29 14 -35z m54 -7 c6 -22 5 -22 -8 -4 -17 22 -20 40
-6 32 5 -3 11 -16 14 -28z m567 1 c0 -5 -7 -9 -15 -9 -15 0 -20 12 -9 23 8 8
24 -1 24 -14z m-955 -29 c3 -5 1 -10 -4 -10 -6 0 -11 5 -11 10 0 6 2 10 4 10
3 0 8 -4 11 -10z m1138 -77 c21 -9 34 -20 30 -24 -5 -5 -39 -15 -76 -22 l-67
-15 -30 35 c-17 18 -30 38 -30 43 0 14 129 1 173 -17z m516 -85 c1 -16 6 -28
11 -28 6 0 10 -4 10 -10 0 -15 -15 -12 -40 8 -20 16 -22 23 -15 73 l8 54 13
-35 c7 -19 13 -47 13 -62z m-169 51 c0 -6 -4 -7 -10 -4 -5 3 -10 11 -10 16 0
6 5 7 10 4 6 -3 10 -11 10 -16z m-585 -29 c3 -5 -1 -10 -9 -10 -9 0 -16 5 -16
10 0 6 4 10 9 10 6 0 13 -4 16 -10z m492 -32 c-3 -8 -6 -5 -6 6 -1 11 2 17 5
13 3 -3 4 -12 1 -19z m-472 2 c3 -5 1 -10 -4 -10 -6 0 -11 5 -11 10 0 6 2 10
4 10 3 0 8 -4 11 -10z m-25 -20 c0 -5 -4 -10 -10 -10 -5 0 -10 5 -10 10 0 6 5
10 10 10 6 0 10 -4 10 -10z m710 2 c0 -9 -40 -35 -46 -29 -3 2 -2 12 2 21 6
16 44 23 44 8z m1300 -132 c8 -5 11 -10 5 -10 -5 0 -17 5 -25 10 -8 5 -10 10
-5 10 6 0 17 -5 25 -10z m117 -20 c3 -10 2 -11 -4 -4 -4 7 -17 14 -28 17 -16
5 -15 5 4 4 14 -1 26 -9 28 -17z m-2657 -30 c0 -5 -4 -10 -10 -10 -5 0 -10 5
-10 10 0 6 5 10 10 10 6 0 10 -4 10 -10z m37 -66 c-10 -10 -37 16 -37 34 0 13
4 12 22 -5 12 -13 19 -25 15 -29z m-28 -14 l16 -24 -28 18 c-15 10 -27 23 -27
28 0 16 22 4 39 -22z m1968 -2 c-3 -8 -6 -5 -6 6 -1 11 2 17 5 13 3 -3 4 -12
1 -19z m-2427 3 c0 -10 -62 -19 -180 -25 -82 -5 -80 -4 40 13 69 10 128 19
133 20 4 0 7 -3 7 -8z m240 -1 c0 -5 -4 -10 -10 -10 -5 0 -10 5 -10 10 0 6 5
10 10 10 6 0 10 -4 10 -10z m260 -16 c0 -8 -5 -12 -10 -9 -6 4 -8 11 -5 16 9
14 15 11 15 -7z m-210 -18 c0 -11 -19 -15 -25 -6 -3 5 1 10 9 10 9 0 16 -2 16
-4z m2127 -18 c-3 -8 -6 -5 -6 6 -1 11 2 17 5 13 3 -3 4 -12 1 -19z m-1957 -3
c14 -8 19 -14 10 -14 -8 0 -24 6 -34 14 -25 19 -9 19 24 0z m-545 -5 c4 -6
-15 -10 -52 -9 -48 1 -53 3 -28 9 44 11 73 11 80 0z m125 -23 c0 -18 -6 -23
-27 -25 -16 -1 -72 -6 -127 -12 -54 -5 -106 -10 -115 -9 -30 1 112 28 186 35
52 5 73 11 73 20 0 8 2 14 5 14 3 0 5 -10 5 -23z m140 3 c0 -5 -11 -10 -25
-10 -14 0 -25 5 -25 10 0 6 11 10 25 10 14 0 25 -4 25 -10z m1202 -38 c-21
-16 -29 1 -10 22 9 10 15 11 20 2 4 -6 0 -17 -10 -24z m-885 -8 c-9 -10 -38
16 -31 28 4 6 13 4 22 -6 9 -8 13 -19 9 -22z m1023 2 c0 -29 -30 -47 -71 -42
-21 2 -43 7 -49 11 -21 13 1 22 43 18 31 -4 46 -1 56 11 17 20 21 20 21 2z
m-1333 -11 c2 -5 -13 -10 -32 -10 -22 0 -35 5 -35 13 0 16 62 13 67 -3z m-480
-1 c-3 -3 -12 -4 -19 -1 -8 3 -5 6 6 6 11 1 17 -2 13 -5z m332 -21 c0 -16 -3
-23 -5 -17 -3 7 -41 10 -112 9 -112 -2 -99 4 48 24 36 5 66 9 68 10 1 0 2 -11
1 -26z m1327 -20 c-11 -11 -17 4 -9 23 7 18 8 18 11 1 2 -10 1 -21 -2 -24z
m1499 17 c-3 -5 -15 -15 -26 -21 -18 -9 -19 -9 -7 10 7 12 19 21 26 21 7 0 10
-4 7 -10z m-3092 -17 c-7 -2 -19 -2 -25 0 -7 3 -2 5 12 5 14 0 19 -2 13 -5z"/>
<path d="M291 3830 c-8 -24 -7 -30 5 -30 9 0 14 10 14 30 0 17 -2 30 -4 30 -2
0 -9 -13 -15 -30z"/>
<path d="M323 3755 c0 -27 2 -38 4 -22 2 15 2 37 0 50 -2 12 -4 0 -4 -28z"/>
<path d="M280 3769 c0 -5 5 -7 10 -4 6 3 10 8 10 11 0 2 -4 4 -10 4 -5 0 -10
-5 -10 -11z"/>
<path d="M467 3806 c-7 -18 7 -46 24 -46 5 0 9 10 9 23 0 17 -2 19 -9 8 -7
-11 -10 -9 -13 10 -3 21 -4 22 -11 5z"/>
<path d="M460 3741 c0 -16 28 -20 34 -5 4 9 -1 14 -14 14 -11 0 -20 -4 -20 -9z"/>
<path d="M350 3245 c0 -8 7 -15 15 -15 9 0 12 6 9 15 -4 8 -10 15 -15 15 -5 0
-9 -7 -9 -15z"/>
<path d="M907 1730 c-3 -11 -1 -20 4 -20 5 0 9 9 9 20 0 11 -2 20 -4 20 -2 0
-6 -9 -9 -20z"/>
<path d="M985 1724 c-9 -10 -13 -20 -8 -23 4 -3 11 -9 14 -13 3 -4 15 6 28 22
21 29 21 30 2 30 -11 0 -27 -7 -36 -16z"/>
<path d="M2550 1490 c0 -5 5 -10 10 -10 6 0 10 5 10 10 0 6 -4 10 -10 10 -5 0
-10 -4 -10 -10z"/>
<path d="M1477 1501 c-19 -42 -43 -119 -62 -198 -16 -67 2 -73 33 -10 21 42
62 194 62 228 0 30 -14 22 -33 -20z"/>
<path d="M1360 1000 c-9 -6 -10 -10 -3 -10 6 0 15 5 18 10 8 12 4 12 -15 0z"/>
<path d="M1036 983 c-6 -14 -5 -15 5 -6 7 7 10 15 7 18 -3 3 -9 -2 -12 -12z"/>
<path d="M779 1220 c-32 -59 -53 -200 -28 -200 28 0 68 154 51 200 l-9 24 -14
-24z"/>
<path d="M686 985 c4 -8 8 -15 10 -15 2 0 4 7 4 15 0 8 -4 15 -10 15 -5 0 -7
-7 -4 -15z"/>
<path d="M710 979 c0 -5 9 -9 20 -9 11 0 20 2 20 4 0 2 -9 6 -20 9 -11 3 -20
1 -20 -4z"/>
<path d="M1820 5872 c0 -14 11 -21 26 -15 21 8 17 23 -6 23 -11 0 -20 -4 -20
-8z"/>
<path d="M3970 5346 c0 -8 5 -18 10 -21 15 -9 2 -25 -20 -25 -18 0 -18 -2 -4
-35 13 -31 12 -34 -2 -28 -14 5 -15 1 -10 -25 4 -17 3 -33 -3 -36 -7 -5 -7
-15 0 -33 7 -19 6 -28 -3 -34 -9 -6 -9 -13 0 -34 7 -14 12 -28 12 -30 0 -10
-76 10 -83 22 -14 24 -32 13 -52 -32 -12 -29 -26 -45 -37 -45 -10 0 -18 5 -18
11 0 8 -15 10 -46 6 -37 -4 -44 -2 -40 10 5 12 1 14 -20 9 -20 -5 -30 -2 -40
13 -8 11 -21 18 -29 14 -8 -3 -26 2 -40 11 -33 21 -45 20 -45 -5 0 -11 -4 -18
-8 -15 -5 3 -16 -4 -26 -16 -18 -20 -18 -21 18 -14 63 12 39 -9 -26 -23 -35
-8 -70 -18 -78 -22 -22 -12 -3 -10 65 6 38 9 63 11 69 5 7 -7 1 -10 -15 -11
-13 0 -42 -7 -64 -14 l-40 -14 52 3 c33 2 54 -1 56 -9 3 -7 -4 -10 -22 -7 -15
2 -42 -1 -61 -7 l-35 -10 35 2 c49 3 49 -17 0 -21 -22 -2 -40 -7 -40 -11 0 -5
-12 -12 -26 -15 -36 -9 -21 -21 24 -18 20 1 31 -1 25 -4 -7 -3 -13 -12 -13
-19 0 -7 -7 -16 -16 -19 -9 -4 -14 -9 -11 -12 3 -3 15 -1 26 6 17 9 21 8 21
-5 0 -8 -5 -15 -12 -15 -6 0 -1 -9 11 -19 14 -12 18 -22 11 -26 -6 -3 -8 -11
-5 -16 4 -5 3 -15 -2 -21 -4 -7 -8 -17 -8 -23 0 -5 -10 -10 -23 -9 -12 0 -22
-3 -22 -8 0 -4 7 -8 15 -8 8 0 15 -4 15 -10 0 -5 -7 -10 -15 -10 -8 0 -15 -4
-15 -10 0 -20 -2 -25 -13 -39 -10 -12 -7 -13 16 -9 34 6 34 -3 2 -38 -14 -16
-31 -24 -40 -21 -8 4 -14 1 -12 -6 1 -7 -8 -11 -23 -9 -19 1 -21 0 -11 -7 12
-8 13 -12 1 -25 -7 -9 -10 -19 -6 -23 6 -6 76 52 84 70 2 4 8 7 14 7 6 0 3
-12 -7 -26 -13 -20 -14 -28 -4 -40 9 -11 8 -14 -4 -14 -9 0 -19 -5 -23 -12 -5
-7 -2 -9 8 -6 8 4 21 2 29 -3 11 -7 9 -9 -8 -9 -24 0 -33 -20 -10 -20 6 -1 -3
-7 -20 -15 -25 -11 -33 -20 -33 -40 0 -16 -6 -25 -15 -25 -22 0 -18 -18 5 -25
15 -5 19 -13 15 -33 -3 -15 -2 -21 1 -14 3 6 10 12 15 12 14 0 11 -20 -7 -37
-14 -14 -16 -14 -28 2 -12 16 -14 13 -19 -26 -3 -26 -1 -46 5 -50 7 -4 6 -8
-2 -11 -7 -2 -14 -16 -16 -31 -2 -24 0 -26 22 -21 25 6 32 -4 13 -23 -7 -7 -4
-12 10 -16 12 -3 21 0 21 6 0 6 3 7 7 3 11 -11 11 -51 -1 -59 -7 -5 -5 -11 7
-18 16 -9 17 -13 4 -32 -23 -38 -29 -60 -13 -54 8 3 17 -1 20 -9 3 -8 8 -101
12 -207 l7 -192 39 -40 39 -40 -28 -7 c-35 -9 -44 -58 -11 -58 11 0 18 -5 15
-12 -2 -7 -11 -12 -21 -10 -30 5 -16 -14 19 -27 41 -14 46 -31 10 -31 -29 0
-36 -34 -9 -44 10 -4 13 -13 9 -26 -4 -12 -2 -20 5 -20 7 0 10 -8 7 -20 -3
-11 -1 -20 4 -20 5 0 9 -9 9 -20 0 -10 9 -24 20 -30 16 -8 19 -17 14 -33 -5
-18 -4 -20 7 -9 18 17 32 15 25 -3 -7 -18 8 -61 20 -57 5 1 9 -2 9 -6 0 -10
31 -42 40 -42 3 0 4 4 0 9 -9 16 12 22 25 7 6 -8 24 -14 40 -14 27 1 30 5 49
78 12 42 21 84 21 93 0 18 39 25 41 7 1 -5 3 -14 4 -20 1 -5 3 -21 4 -34 0
-13 8 -26 15 -29 12 -5 14 3 9 46 -4 40 -11 58 -34 80 -33 31 -26 36 11 8 13
-11 29 -34 35 -52 6 -18 17 -35 25 -37 8 -3 10 0 6 7 -9 14 20 61 37 61 7 0
19 6 26 13 6 6 15 13 19 13 34 7 52 19 52 36 0 27 -25 49 -47 42 -16 -5 -16
-4 -2 5 18 11 45 68 37 77 -3 3 -13 -2 -21 -11 -20 -19 -29 -6 -29 40 l0 33
-24 -21 c-13 -11 -24 -30 -24 -41 0 -16 -2 -18 -9 -7 -6 9 -18 11 -35 7 -24
-6 -29 -2 -42 30 -8 19 -28 49 -44 64 -30 29 -42 52 -17 31 15 -12 37 3 37 26
0 7 4 13 9 13 5 0 12 28 16 63 10 79 19 59 39 -82 15 -102 36 -158 36 -95 0
17 11 68 25 113 21 73 25 106 28 279 5 215 0 305 -16 295 -6 -3 -7 11 -4 38 3
24 8 67 10 94 4 56 21 105 36 105 6 0 18 -16 27 -36 15 -32 16 -44 4 -122 -16
-104 -14 -522 2 -537 7 -7 8 -3 3 13 -4 16 -2 22 8 22 9 0 17 14 21 35 10 53
5 1535 -5 1535 -5 0 -3 12 3 26 9 20 9 27 -1 33 -10 7 -10 13 -2 29 7 14 8 29
1 46 -11 29 -20 34 -20 12z m-106 -330 c-10 -16 -21 -23 -31 -19 -13 5 -11 9
8 24 33 26 42 23 23 -5z m-264 4 c0 -5 -7 -10 -15 -10 -8 0 -15 5 -15 10 0 6
7 10 15 10 8 0 15 -4 15 -10z m310 -5 c-7 -8 -17 -15 -22 -15 -6 0 -5 7 2 15
7 8 17 15 22 15 6 0 5 -7 -2 -15z m-250 -13 c0 -4 -10 -9 -22 -9 -18 -2 -20 0
-8 7 18 12 30 13 30 2z m-70 -23 c0 -10 -12 -11 -34 -3 -25 10 -19 22 9 16 14
-2 25 -8 25 -13z m128 6 c-3 -3 -23 -8 -44 -11 l-39 -4 40 13 c38 13 55 13 43
2z m107 -5 c-3 -5 -11 -10 -16 -10 -6 0 -7 5 -4 10 3 6 11 10 16 10 6 0 7 -4
4 -10z m-185 -25 c7 -9 8 -15 2 -15 -5 0 -12 7 -16 15 -3 8 -4 15 -2 15 2 0 9
-7 16 -15z m40 -5 c0 -5 -2 -10 -4 -10 -3 0 -8 5 -11 10 -3 6 -1 10 4 10 6 0
11 -4 11 -10z m-80 -31 c0 -5 -4 -9 -10 -9 -5 0 -10 7 -10 16 0 8 5 12 10 9 6
-3 10 -10 10 -16z m47 -5 c-3 -3 -12 -4 -19 -1 -8 3 -5 6 6 6 11 1 17 -2 13
-5z m-82 -14 c3 -5 -1 -10 -9 -10 -8 0 -18 5 -21 10 -3 6 1 10 9 10 8 0 18 -4
21 -10z m69 -30 c-12 -5 -25 -13 -29 -19 -10 -17 -25 -13 -25 7 0 14 2 15 10
2 8 -13 10 -12 10 3 0 12 8 17 28 16 25 0 25 -1 6 -9z m-172 -17 c-6 -3 -10
-9 -7 -13 3 -5 2 -11 -3 -14 -4 -2 -13 3 -19 13 -10 16 -8 18 15 18 15 0 21
-2 14 -4z m431 -10 c-7 -2 -19 -2 -25 0 -7 3 -2 5 12 5 14 0 19 -2 13 -5z
m-373 -25 c0 -4 -6 -8 -14 -8 -8 0 -23 -3 -33 -7 -16 -6 -16 -5 -5 9 13 17 52
21 52 6z m410 -2 c0 -20 -30 -29 -48 -14 -13 11 -11 14 9 19 36 10 39 10 39
-5z m-380 -16 c0 -10 -9 -24 -19 -30 -14 -7 -17 -16 -13 -32 l6 -23 6 24 c3
14 12 27 19 29 8 3 11 1 8 -4 -6 -10 70 -10 102 1 24 7 29 -10 6 -19 -8 -3
-15 -13 -15 -22 0 -11 -5 -14 -16 -10 -19 7 -64 -3 -64 -15 0 -5 7 -9 15 -9 8
0 15 -4 15 -10 0 -5 -4 -10 -9 -10 -5 0 -12 -11 -15 -25 -4 -14 -13 -25 -20
-25 -17 0 -29 -27 -15 -35 17 -11 1 -22 -42 -29 -30 -5 -39 -10 -35 -21 3 -9
0 -15 -9 -15 -8 0 -15 5 -15 10 0 6 -9 10 -20 10 -11 0 -20 5 -20 10 0 6 6 10
13 10 6 0 27 14 45 31 18 17 36 28 40 24 4 -3 -1 -11 -11 -16 -9 -6 -17 -17
-17 -25 0 -12 4 -12 20 -4 11 6 20 21 20 33 1 28 29 81 30 55 0 -34 17 -18 18
17 1 19 -1 35 -4 35 -15 0 -44 -22 -39 -30 3 -5 1 -11 -5 -15 -5 -3 -10 -1
-10 4 0 6 -7 11 -15 11 -8 0 -15 5 -15 10 0 6 4 10 9 10 5 0 12 7 15 16 5 14
4 15 -9 4 -11 -9 -19 -10 -26 -3 -7 7 -4 16 13 27 19 14 21 18 8 26 -13 9 -13
11 0 20 8 5 23 10 33 10 9 0 17 5 17 10 0 6 5 10 10 10 6 0 10 -9 10 -20z m40
-10 c0 -11 -7 -20 -15 -20 -13 0 -13 3 -3 20 7 11 14 20 15 20 2 0 3 -9 3 -20z
m134 -44 c-21 -15 -30 -14 -19 3 3 6 14 11 23 11 13 0 13 -2 -4 -14z m-54 -65
c0 -7 -49 -31 -62 -31 -5 0 -1 11 9 23 16 21 53 27 53 8z m-230 -71 c0 -5 -4
-10 -10 -10 -5 0 -10 5 -10 10 0 6 5 10 10 10 6 0 10 -4 10 -10z m187 -36 c-9
-9 -28 6 -21 18 4 6 10 6 17 -1 6 -6 8 -13 4 -17z m-192 -64 c3 -6 -4 -10 -17
-10 -18 0 -20 2 -8 10 19 12 18 12 25 0z m-35 -40 c0 -5 -4 -10 -10 -10 -5 0
-10 5 -10 10 0 6 5 10 10 10 6 0 10 -4 10 -10z m50 -14 c0 -9 -7 -12 -21 -9
-16 4 -17 8 -7 14 19 13 28 11 28 -5z m-103 -138 c-3 -8 -6 -5 -6 6 -1 11 2
17 5 13 3 -3 4 -12 1 -19z m-7 -128 c0 -5 -4 -10 -10 -10 -5 0 -10 5 -10 10 0
6 5 10 10 10 6 0 10 -4 10 -10z m15 -120 c18 -35 19 -51 2 -29 -7 8 -20 18
-29 22 -11 4 -15 12 -12 22 9 23 22 18 39 -15z m55 -250 c0 -11 -4 -20 -8 -20
-4 0 -8 9 -9 20 -1 11 2 20 8 20 5 0 9 -9 9 -20z m271 -354 c7 4 8 -7 4 -32
-4 -22 -7 -50 -7 -64 0 -14 -2 -20 -4 -13 -3 7 -11 10 -17 7 -10 -3 -11 14 -5
73 10 117 11 122 15 70 3 -29 8 -45 14 -41z m-116 -1 c19 -54 35 -78 35 -54 0
12 2 12 10 -1 15 -23 12 -33 -7 -26 -12 4 -9 -2 7 -17 14 -12 32 -31 40 -42
12 -17 12 -18 0 -7 -23 20 -32 14 -16 -10 9 -12 16 -29 16 -37 0 -20 -52 55
-69 99 -14 39 -51 153 -51 160 0 14 19 -22 35 -65z m17 -164 c54 -51 35 -60
-20 -9 -26 23 -49 46 -50 50 -8 17 35 -7 70 -41z m-99 11 c14 -22 1 -24 -24
-3 -22 18 -22 19 -4 18 11 -1 24 -8 28 -15z m265 -73 c-24 -15 -38 -9 -38 16
0 14 5 25 10 25 6 0 10 8 11 18 0 10 7 3 15 -17 13 -28 13 -36 2 -42z m127 10
c4 -6 5 -12 2 -15 -7 -7 -37 7 -37 17 0 13 27 11 35 -2z m-258 -16 c10 -4 14
-2 10 4 -9 14 25 12 35 -2 4 -5 8 -17 8 -24 0 -12 -3 -12 -12 -3 -20 20 -28
14 -17 -12 6 -13 21 -29 33 -35 20 -10 19 -11 -4 -5 -24 6 -40 21 -84 74 -15
19 -16 22 -2 17 9 -4 23 -10 33 -14z"/>
<path d="M3570 5166 c0 -2 7 -9 15 -16 12 -10 15 -10 15 4 0 9 -7 16 -15 16
-8 0 -15 -2 -15 -4z"/>
<path d="M3610 5160 c0 -5 7 -10 15 -10 8 0 15 5 15 10 0 6 -7 10 -15 10 -8 0
-15 -4 -15 -10z"/>
<path d="M1156 5132 c-11 -18 11 -33 39 -26 26 7 27 8 10 20 -21 16 -41 18
-49 6z"/>
<path d="M3546 5088 c7 -11 64 -27 64 -17 0 5 11 9 24 9 14 0 27 3 30 8 2 4
-24 7 -59 7 -35 0 -61 -3 -59 -7z"/>
<path d="M3740 5079 c0 -5 5 -7 10 -4 6 3 10 8 10 11 0 2 -4 4 -10 4 -5 0 -10
-5 -10 -11z"/>
<path d="M3620 5060 c0 -6 7 -10 15 -10 8 0 15 2 15 4 0 2 -7 6 -15 10 -8 3
-15 1 -15 -4z"/>
<path d="M3300 4870 c0 -5 5 -10 10 -10 6 0 10 5 10 10 0 6 -4 10 -10 10 -5 0
-10 -4 -10 -10z"/>
<path d="M3333 4833 c-34 -7 -28 -20 7 -15 16 2 27 8 24 13 -3 5 -6 8 -7 8 -1
-1 -12 -4 -24 -6z"/>
<path d="M3277 4398 c-8 -27 -7 -28 20 -17 15 5 21 14 17 24 -9 22 -31 18 -37
-7z"/>
<path d="M3225 4376 c20 -14 35 -12 35 5 0 5 -12 9 -27 9 -26 0 -26 -1 -8 -14z"/>
<path d="M3181 4311 c-20 -15 -21 -19 -7 -24 23 -9 20 -30 -4 -24 -29 8 -34
-9 -10 -35 20 -22 20 -23 3 -31 -18 -8 -47 -57 -38 -65 2 -3 12 1 21 9 15 12
19 11 32 -9 16 -25 45 -31 36 -7 -4 8 -1 21 5 29 13 16 10 48 -8 69 -8 10 -9
22 -3 34 4 10 6 30 3 45 -6 27 -6 27 -30 9z"/>
<path d="M3270 4260 c0 -11 5 -20 10 -20 6 0 10 9 10 20 0 11 -4 20 -10 20 -5
0 -10 -9 -10 -20z"/>
<path d="M3092 4210 c0 -14 2 -19 5 -12 2 6 2 18 0 25 -3 6 -5 1 -5 -13z"/>
<path d="M3159 4088 c-1 -2 -2 -15 -3 -29 -1 -18 2 -25 11 -22 7 3 13 0 13 -6
0 -6 -9 -11 -19 -11 -10 0 -22 -7 -25 -16 -9 -24 -7 -28 7 -15 8 6 16 9 19 6
7 -7 24 15 32 43 6 17 3 22 -9 22 -11 0 -15 5 -11 15 4 12 -10 23 -15 13z"/>
<path d="M3205 4070 c3 -5 12 -7 20 -3 21 7 19 13 -6 13 -11 0 -18 -4 -14 -10z"/>
<path d="M3245 4030 c-3 -5 -1 -10 4 -10 6 0 11 5 11 10 0 6 -2 10 -4 10 -3 0
-8 -4 -11 -10z"/>
<path d="M3270 4000 c0 -5 7 -10 16 -10 8 0 12 5 9 10 -3 6 -10 10 -16 10 -5
0 -9 -4 -9 -10z"/>
<path d="M2410 3970 c-8 -5 -10 -10 -5 -10 6 0 17 5 25 10 8 5 11 10 5 10 -5
0 -17 -5 -25 -10z"/>
<path d="M3191 3964 c0 -11 3 -14 6 -6 3 7 2 16 -1 19 -3 4 -6 -2 -5 -13z"/>
<path d="M3156 3954 c-9 -24 -7 -34 7 -34 6 0 12 11 12 25 0 28 -10 33 -19 9z"/>
<path d="M3980 3573 c0 -5 5 -15 10 -23 8 -12 10 -11 10 8 0 12 -4 22 -10 22
-5 0 -10 -3 -10 -7z"/>
<path d="M3033 3447 c2 -6 10 -11 16 -9 15 3 13 -38 -4 -68 -8 -14 -14 -32
-14 -40 0 -8 13 12 30 44 16 33 29 61 29 62 0 1 -14 7 -31 13 -23 8 -29 8 -26
-2z"/>
<path d="M2965 3390 c-4 -6 11 -10 36 -10 48 0 49 4 2 13 -18 4 -35 2 -38 -3z"/>
<path d="M3983 3260 c-12 -28 -8 -39 8 -23 6 6 9 19 6 29 -3 17 -5 16 -14 -6z"/>
<path d="M2690 3031 c0 -6 4 -13 10 -16 5 -3 17 -22 27 -42 9 -20 19 -31 21
-24 2 7 -8 30 -22 51 -26 40 -36 48 -36 31z"/>
<path d="M2946 2997 c3 -10 9 -15 12 -12 3 3 0 11 -7 18 -10 9 -11 8 -5 -6z"/>
<path d="M2415 2980 c3 -5 8 -10 11 -10 2 0 4 5 4 10 0 6 -5 10 -11 10 -5 0
-7 -4 -4 -10z"/>
<path d="M3742 2971 c-11 -7 -11 -9 1 -14 9 -3 21 1 27 9 10 11 10 14 -1 14
-8 0 -20 -4 -27 -9z"/>
<path d="M3774 2938 c-11 -12 -13 -18 -6 -14 7 4 15 1 18 -9 5 -11 10 -13 19
-5 6 5 14 7 18 4 3 -3 4 2 3 11 -4 30 -31 37 -52 13z"/>
<path d="M2165 2895 c-22 -19 -43 -35 -47 -35 -3 0 -14 -7 -22 -16 -43 -42 14
-56 72 -18 37 24 42 32 42 66 0 21 -1 38 -2 38 -2 0 -21 -16 -43 -35z"/>
<path d="M167 2899 c-7 -25 7 -51 37 -69 19 -12 20 -12 7 3 -11 15 -10 18 8
25 l22 8 -21 27 c-26 32 -46 35 -53 6z"/>
<path d="M286 2888 c-10 -30 -16 -68 -12 -68 7 0 56 46 56 53 0 4 -9 11 -20
17 -15 8 -21 8 -24 -2z"/>
<path d="M380 2860 c6 -11 16 -20 22 -20 6 0 3 9 -7 20 -10 11 -20 20 -22 20
-2 0 1 -9 7 -20z"/>
<path d="M3813 2843 c-15 -5 -17 -23 -4 -23 5 0 11 7 15 15 3 8 4 15 3 14 -1
0 -8 -3 -14 -6z"/>
<path d="M2198 2824 c-4 -3 -5 -11 -2 -17 2 -7 -11 -22 -28 -34 -18 -13 -28
-23 -23 -23 15 0 75 38 75 47 0 14 -16 33 -22 27z"/>
<path d="M2235 2770 c3 -5 8 -10 11 -10 2 0 4 5 4 10 0 6 -5 10 -11 10 -5 0
-7 -4 -4 -10z"/>
<path d="M2195 2750 c-18 -19 -17 -20 3 -20 15 0 20 6 19 20 -1 11 -2 20 -3
20 0 0 -9 -9 -19 -20z"/>
<path d="M3866 2731 c-21 -24 -12 -49 10 -30 8 7 20 21 25 31 13 25 -12 24
-35 -1z"/>
<path d="M3843 2645 c-3 -9 -3 -18 -1 -21 3 -3 8 4 11 16 6 23 -1 27 -10 5z"/>
<path d="M3086 2621 c-4 -7 -5 -15 -2 -18 9 -9 19 4 14 18 -4 11 -6 11 -12 0z"/>
<path d="M207 2523 c-13 -12 -7 -23 13 -23 11 0 20 7 20 15 0 15 -21 21 -33 8z"/>
<path d="M0 2495 c0 -23 2 -24 25 -13 19 9 22 14 14 25 -18 21 -39 15 -39 -12z"/>
<path d="M3091 2495 c0 -17 4 -39 9 -50 l9 -20 1 20 c1 19 2 19 12 -2 22 -45
37 -13 22 45 -4 12 -10 22 -15 22 -5 0 -10 -10 -10 -22 -1 -21 -2 -21 -6 -3
-9 35 -23 41 -22 10z"/>
<path d="M3840 2420 c0 -5 7 -10 16 -10 8 0 12 5 9 10 -3 6 -10 10 -16 10 -5
0 -9 -4 -9 -10z"/>
<path d="M785 2310 c3 -5 11 -10 16 -10 6 0 7 5 4 10 -3 6 -11 10 -16 10 -6 0
-7 -4 -4 -10z"/>
<path d="M2350 1700 c0 -5 5 -10 11 -10 5 0 7 5 4 10 -3 6 -8 10 -11 10 -2 0
-4 -4 -4 -10z"/>
<path d="M3840 1680 c0 -5 9 -10 20 -10 11 0 20 5 20 10 0 6 -9 10 -20 10 -11
0 -20 -4 -20 -10z"/>
<path d="M3271 1632 c-1 -24 28 -96 35 -89 2 2 -5 28 -15 58 -13 35 -20 46
-20 31z"/>
<path d="M3880 1634 c0 -8 5 -12 10 -9 6 4 8 11 5 16 -9 14 -15 11 -15 -7z"/>
<path d="M3676 1628 c7 -11 32 -10 39 2 3 6 -4 9 -19 8 -13 -1 -22 -6 -20 -10z"/>
<path d="M3600 1472 c0 -5 7 -13 16 -16 10 -4 14 -1 12 6 -5 15 -28 23 -28 10z"/>
<path d="M3706 1449 c-4 -10 -15 -15 -25 -12 -10 2 -33 -2 -52 -10 -20 -9 -27
-16 -16 -16 28 -2 20 -19 -13 -26 -16 -3 -55 -7 -87 -7 -88 0 -93 -3 -81 -42
10 -30 14 -33 57 -36 83 -6 115 -4 119 8 2 7 23 12 47 12 l44 0 11 55 c12 59
10 105 -4 74z"/>
<path d="M2156 1343 c-6 -14 -5 -15 5 -6 7 7 10 15 7 18 -3 3 -9 -2 -12 -12z"/>
<path d="M3375 1350 c3 -5 8 -10 11 -10 2 0 4 5 4 10 0 6 -5 10 -11 10 -5 0
-7 -4 -4 -10z"/>
<path d="M3634 1283 c1 -13 -8 -19 -34 -22 -27 -2 -31 -5 -16 -10 10 -4 40 0
65 8 42 14 44 16 21 22 l-25 6 25 5 c22 5 22 5 -6 7 -25 1 -31 -3 -30 -16z"/>
<path d="M3310 1270 c0 -6 7 -10 15 -10 8 0 15 2 15 4 0 2 -7 6 -15 10 -8 3
-15 1 -15 -4z"/>
<path d="M3078 1253 c6 -2 18 -2 25 0 6 3 1 5 -13 5 -14 0 -19 -2 -12 -5z"/>
<path d="M3420 1254 c0 -3 7 -12 15 -20 16 -17 18 -14 9 10 -6 15 -24 23 -24
10z"/>
<path d="M3460 1222 c0 -32 -5 -41 -25 -50 -33 -15 -35 -15 -35 3 0 9 -8 19
-17 22 -10 4 -25 16 -35 28 -20 25 -35 13 -20 -18 11 -22 24 -62 27 -82 7 -42
19 -56 44 -53 22 2 33 17 68 88 31 62 39 86 30 92 -26 17 -37 8 -37 -30z"/>
<path d="M3675 1230 c3 -5 -4 -11 -17 -11 -13 -1 -30 -2 -38 -3 -8 -1 -23 2
-33 7 -21 10 -38 0 -19 -12 16 -10 -7 -61 -27 -61 -12 0 -12 3 -3 12 15 15 16
45 1 54 -6 3 -16 1 -22 -6 -9 -10 -9 -11 2 -5 9 5 12 3 9 -6 -3 -8 -11 -14
-18 -14 -7 0 -15 -6 -18 -14 -3 -8 0 -11 7 -7 6 4 11 1 11 -9 0 -23 -28 -75
-41 -75 -6 0 -7 -5 -3 -11 4 -8 9 -7 16 2 7 10 8 7 5 -10 -9 -37 8 -65 46 -79
45 -16 70 -5 93 40 9 18 22 38 30 45 7 7 16 38 19 68 8 57 21 78 36 54 7 -11
9 -9 9 7 0 11 -5 25 -12 32 -14 14 -42 16 -33 2z m-91 -105 c-7 -16 -24 -21
-24 -6 0 8 7 13 27 20 1 1 0 -6 -3 -14z m-4 -35 c-11 -7 -11 -10 -2 -10 7 0
10 -4 7 -10 -9 -15 -35 -12 -35 4 0 14 14 24 35 25 6 0 3 -4 -5 -9z m-36 -66
c6 -15 4 -15 -11 -3 -10 7 -20 15 -22 16 -2 2 3 3 11 3 9 0 19 -7 22 -16z m36
2 c0 -3 -4 -8 -10 -11 -5 -3 -10 -1 -10 4 0 6 5 11 10 11 6 0 10 -2 10 -4z"/>
<path d="M3090 1185 c-7 -9 -10 -18 -7 -21 3 -3 10 4 17 15 13 25 8 27 -10 6z"/>
<path d="M3700 1140 c0 -5 5 -10 11 -10 5 0 7 5 4 10 -3 6 -8 10 -11 10 -2 0
-4 -4 -4 -10z"/>
<path d="M3700 1096 c0 -8 5 -18 10 -21 6 -3 10 1 10 9 0 8 -4 18 -10 21 -5 3
-10 -1 -10 -9z"/>
<path d="M2050 1040 c0 -5 5 -10 10 -10 6 0 10 5 10 10 0 6 -4 10 -10 10 -5 0
-10 -4 -10 -10z"/>
<path d="M3650 1000 c18 -12 30 -13 30 -2 0 4 -10 9 -22 9 -18 2 -20 0 -8 -7z"/>
<path d="M3625 980 c-3 -5 -1 -10 4 -10 6 0 11 5 11 10 0 6 -2 10 -4 10 -3 0
-8 -4 -11 -10z"/>
<path d="M3663 774 c-7 -20 5 -30 45 -39 24 -5 32 -3 32 8 0 30 -67 57 -77 31z"/>
<path d="M3770 770 c0 -5 7 -10 15 -10 8 0 15 5 15 10 0 6 -7 10 -15 10 -8 0
-15 -4 -15 -10z"/>
<path d="M3440 711 c0 -24 21 -32 60 -24 51 10 40 25 -27 37 -28 5 -33 2 -33
-13z"/>
<path d="M3520 666 c0 -9 5 -16 10 -16 6 0 10 4 10 9 0 6 -4 13 -10 16 -5 3
-10 -1 -10 -9z"/>
</g>
</svg>
